<?xml version="1.0" encoding="UTF-8"?>
<svg version="1.1" xmlns="http://www.w3.org/2000/svg" width="637" height="839">
<path d="M0 0 C6.76339365 4.68427193 12.52386144 10.1742179 18.3125 16 C18.77665314 16.46664063 19.24080627 16.93328125 19.71902466 17.4140625 C27.12551269 24.8819219 33.95792291 32.39827934 40 41 C40.52045898 41.72493652 41.04091797 42.44987305 41.57714844 43.19677734 C71.21871781 84.74104944 87.2048832 133.16804631 87.25 184.1875 C87.25067474 184.88253632 87.25134949 185.57757263 87.25204468 186.29367065 C87.15036199 252.92244287 59.07823302 312.47045401 12.7109375 359.3125 C11.45065719 360.55818247 10.18894615 361.80242118 8.92504883 363.04443359 C7.09519798 364.90329286 5.37850236 366.81385596 3.67578125 368.7890625 C-6.06192286 379.98530002 -16.46182765 390.56143589 -26.9375 401.0625 C-27.42750488 401.55509308 -27.91750977 402.04768616 -28.42236328 402.5552063 C-34.10224306 408.25876812 -39.88568937 413.76259268 -46 419 C-47.5448126 420.4132355 -49.08695325 421.82940409 -50.625 423.25 C-54.61579396 426.86013362 -58.74924857 430.20714022 -63 433.5 C-77.49290297 444.7599752 -90.74554276 457.48524991 -102 472 C-103.07666624 473.35949909 -104.15350159 474.71886427 -105.23046875 476.078125 C-111.25926367 483.75494439 -116.70628877 491.20413469 -121 500 C-89.40673053 516.69705677 -55.6630047 527.39564497 -19.75 528.84375 C-17.24515201 528.94811867 -14.74243829 529.13623585 -12.25 529.40625 C-7.07842645 529.80749278 -3.53095803 530.08017594 0.8125 527.015625 C3.36301869 524.44955437 5.68265552 521.77671188 8 519 C10.55463718 516.53105296 13.26831257 514.27037598 16 512 C16.50595703 511.57493164 17.01191406 511.14986328 17.53320312 510.71191406 C31.44686157 499.07460042 46.06879829 489.83184569 62.19360352 481.55078125 C111.58352373 456.18364096 143.39688316 422.03663419 171.47290039 374.5769043 C171.97684326 373.72652588 172.48078613 372.87614746 173 372 C173.51876709 371.06518799 174.03753418 370.13037598 174.57202148 369.16723633 C175.04325439 368.45204834 175.5144873 367.73686035 176 367 C176.66 367 177.32 367 178 367 C194.01685154 428.34517446 187.69158034 494.17039991 155.54931641 549.49707031 C149.37137946 559.84798324 142.67024758 569.69827548 135 579 C134.54157715 579.55993652 134.0831543 580.11987305 133.61083984 580.69677734 C123.17761147 593.36847163 111.96735072 604.90007754 99 615 C98.06414062 615.76441406 97.12828125 616.52882813 96.1640625 617.31640625 C65.35844858 641.98465493 27.87284564 657.78718906 -11 664 C-12.73334595 664.27710815 -12.73334595 664.27710815 -14.50170898 664.55981445 C-24.95958205 666.05265942 -35.29671677 666.34025344 -45.85229492 666.31567383 C-48.66690213 666.31252306 -51.48044415 666.33604324 -54.29492188 666.36132812 C-71.36697951 666.42182872 -87.98524392 664.38862519 -104.5625 660.25 C-106.13161133 659.86158936 -106.13161133 659.86158936 -107.73242188 659.46533203 C-138.95745528 651.51653701 -169.63519206 637.13485382 -194.40283203 616.33691406 C-195.98171311 615.0153071 -197.5797561 613.72083344 -199.18359375 612.4296875 C-212.45371629 601.62828321 -224.53366934 589.52025573 -234.70117188 575.74755859 C-236.03331039 573.95518125 -237.39641418 572.18995673 -238.765625 570.42578125 C-245.3749287 561.80625334 -250.81269654 552.78530315 -255.85644531 543.17285156 C-256.91371201 541.16395455 -257.99679399 539.1714131 -259.0859375 537.1796875 C-287.08203213 484.87191578 -290.76071293 419.98283429 -274.1875 363.625 C-260.18017002 318.44591754 -232.93019509 275.83948718 -195 247 C-194.47567383 246.59394531 -193.95134766 246.18789062 -193.41113281 245.76953125 C-181.78254685 236.79024052 -169.31645642 229.23932092 -156.75878906 221.64453125 C-146.35916411 215.34172825 -136.59539131 208.47093038 -127 201 C-126.09765625 200.30132812 -125.1953125 199.60265625 -124.265625 198.8828125 C-121.81602311 196.95355088 -119.404247 194.98546681 -117 193 C-116.01644531 192.20207031 -115.03289062 191.40414062 -114.01953125 190.58203125 C-106.35476355 184.26075092 -99.2314889 177.44063983 -92.1875 170.4375 C-91.31633545 169.57552002 -90.4451709 168.71354004 -89.54760742 167.82543945 C-83.60842853 161.85801911 -78.25973482 155.56753926 -73 149 C-71.44049815 147.1849197 -69.87866188 145.37183674 -68.3125 143.5625 C-55.8200137 128.53670765 -45.60919007 111.96934869 -36 95 C-35.61118652 94.32163086 -35.22237305 93.64326172 -34.82177734 92.94433594 C-19.70698004 66.44644624 -9.774124 37.20836575 -2.72680664 7.64941406 C-1.99986182 4.9994963 -1.06988039 2.5287561 0 0 Z " fill="#D4AA41" transform="translate(367,0)"/>
<path d="M0 0 C6.76339365 4.68427193 12.52386144 10.1742179 18.3125 16 C18.77665314 16.46664063 19.24080627 16.93328125 19.71902466 17.4140625 C27.12551269 24.8819219 33.95792291 32.39827934 40 41 C40.52045898 41.72493652 41.04091797 42.44987305 41.57714844 43.19677734 C71.21871781 84.74104944 87.2048832 133.16804631 87.25 184.1875 C87.25067474 184.88253632 87.25134949 185.57757263 87.25204468 186.29367065 C87.15036199 252.92244287 59.07823302 312.47045401 12.7109375 359.3125 C11.45065719 360.55818247 10.18894615 361.80242118 8.92504883 363.04443359 C7.09519798 364.90329286 5.37850236 366.81385596 3.67578125 368.7890625 C-6.06192286 379.98530002 -16.46182765 390.56143589 -26.9375 401.0625 C-27.42750488 401.55509308 -27.91750977 402.04768616 -28.42236328 402.5552063 C-34.10224306 408.25876812 -39.88568937 413.76259268 -46 419 C-47.5448126 420.4132355 -49.08695325 421.82940409 -50.625 423.25 C-55.18052244 427.37099568 -59.94937303 431.13817097 -64.80249023 434.89550781 C-71.20697802 439.88273139 -77.30305985 445.21263223 -83 451 C-89.46715578 449.69432817 -92.9648234 445.56170165 -97.375 441 C-98.11105469 440.26265625 -98.84710938 439.5253125 -99.60546875 438.765625 C-105 433.28101809 -105 433.28101809 -105 431 C-105.99 430.175 -106.98 429.35 -108 428.5 C-108.99 427.675 -109.98 426.85 -111 426 C-111 425.34 -111 424.68 -111 424 C-112.83393715 422.03958443 -114.74807216 420.22493557 -116.75 418.4375 C-118 417 -118 417 -118 414 C-118.99 413.67 -119.98 413.34 -121 413 C-121 412.01 -121 411.02 -121 410 C-121.66 410 -122.32 410 -123 410 C-123 409.01 -123 408.02 -123 407 C-123.99 406.67 -124.98 406.34 -126 406 C-126.33 404.35 -126.66 402.7 -127 401 C-127.66 401 -128.32 401 -129 401 C-129 400.01 -129 399.02 -129 398 C-129.66 397.67 -130.32 397.34 -131 397 C-131.33333333 395.66666667 -131.66666667 394.33333333 -132 393 C-132.66 392.67 -133.32 392.34 -134 392 C-136 389 -136 389 -136 386 C-136.66 385.67 -137.32 385.34 -138 385 C-151 362.12 -151 362.12 -151 352 C-151.66 351.67 -152.32 351.34 -153 351 C-154.1875 348.0625 -154.1875 348.0625 -155 345 C-154.67 344.34 -154.34 343.68 -154 343 C-154.66 343 -155.32 343 -156 343 C-156.12375 342.13375 -156.2475 341.2675 -156.375 340.375 C-156.90906893 337.05686191 -156.90906893 337.05686191 -157.9375 334.1875 C-160.33248737 327.00253788 -161.39564349 319.62017651 -162.4921875 312.14453125 C-162.9278212 309.44695332 -163.4746802 306.83915609 -164.125 304.1875 C-165.10816887 300.03380207 -165.0710209 296.26125426 -165 292 C-165.16097168 291.23800293 -165.32194336 290.47600586 -165.48779297 289.69091797 C-166.09898862 286.47995589 -166.12970408 283.46404176 -166.1328125 280.1953125 C-166.13474609 278.23658203 -166.13474609 278.23658203 -166.13671875 276.23828125 C-166.13462402 275.5623291 -166.1325293 274.88637695 -166.13037109 274.18994141 C-166.12503452 272.13827051 -166.13032114 270.08682026 -166.13671875 268.03515625 C-166.13542969 266.72675781 -166.13414062 265.41835938 -166.1328125 264.0703125 C-166.13168457 262.88195801 -166.13055664 261.69360352 -166.12939453 260.46923828 C-165.99685387 256.91564812 -165.54864443 253.51111301 -165 250 C-164.83903355 248.04285243 -164.69259842 246.08444155 -164.5625 244.125 C-164.20906996 239.64260955 -163.57603365 235.39813642 -162.5 231.03515625 C-161.92252545 228.94247288 -161.92252545 228.94247288 -161.83984375 226.49609375 C-160.59183682 222.78690105 -157.84376981 221.7360689 -154.5625 220 C-141.09933667 212.40606764 -128.76857601 202.99121042 -117 193 C-115.99710938 192.18144531 -114.99421875 191.36289063 -113.9609375 190.51953125 C-106.31632771 184.21686117 -99.21230694 177.4216013 -92.1875 170.4375 C-91.31625488 169.57543945 -90.44500977 168.71337891 -89.54736328 167.82519531 C-83.60826903 161.85785732 -78.25966082 155.56744686 -73 149 C-71.44049815 147.1849197 -69.87866188 145.37183674 -68.3125 143.5625 C-55.8200137 128.53670765 -45.60919007 111.96934869 -36 95 C-35.61118652 94.32163086 -35.22237305 93.64326172 -34.82177734 92.94433594 C-19.70698004 66.44644624 -9.774124 37.20836575 -2.72680664 7.64941406 C-1.99986182 4.9994963 -1.06988039 2.5287561 0 0 Z " fill="#DCB64E" transform="translate(367,0)"/>
<path d="M0 0 C0.66 0 1.32 0 2 0 C18.01685154 61.34517446 11.69158034 127.17039991 -20.45068359 182.49707031 C-26.62862054 192.84798324 -33.32975242 202.69827548 -41 212 C-41.45842285 212.55993652 -41.9168457 213.11987305 -42.38916016 213.69677734 C-52.82238853 226.36847163 -64.03264928 237.90007754 -77 248 C-77.93585938 248.76441406 -78.87171875 249.52882813 -79.8359375 250.31640625 C-119.92298442 282.41695925 -170.81036887 299.6742005 -222 299.125 C-223.66145283 299.11493256 -225.32291169 299.10581347 -226.984375 299.09765625 C-230.98973681 299.07598111 -234.99479835 299.04166743 -239 299 C-239.5778875 252.94236632 -213.89596905 203.87023477 -184 170 C-182.8884863 168.86167347 -181.76526622 167.73452375 -180.625 166.625 C-177.98080364 164.19944691 -177.98080364 164.19944691 -176.5625 161.5625 C-172.54828198 154.97918244 -165.85839599 149.91139696 -160 145 C-159.48969238 144.57058105 -158.97938477 144.14116211 -158.45361328 143.69873047 C-144.5444367 132.06712661 -129.92473462 122.82852445 -113.80639648 114.55078125 C-64.41647627 89.18364096 -32.60311684 55.03663419 -4.52709961 7.5769043 C-3.7711853 6.30133667 -3.7711853 6.30133667 -3 5 C-2.48123291 4.06518799 -1.96246582 3.13037598 -1.42797852 2.16723633 C-0.95674561 1.45204834 -0.4855127 0.73686035 0 0 Z " fill="#202020" transform="translate(543,367)"/>
<path d="M0 0 C4.79049607 1.38462843 9.0481683 3.45425968 13.484375 5.68115234 C47.53724758 22.69033211 84.1221394 29.48979992 122 29 C120.64869356 32.04676273 119.15783276 34.02693774 116.73046875 36.296875 C113.21729077 39.71470957 110.22515623 43.3146979 107.3125 47.25 C106.80557617 47.9318335 106.29865234 48.61366699 105.77636719 49.31616211 C99.72221687 57.58326664 94.25477103 66.20769067 89 75 C88.43587402 75.93996826 88.43587402 75.93996826 87.86035156 76.89892578 C78.04519904 93.52017233 71.06381403 112.4132803 66 131 C65.81743652 131.66870117 65.63487305 132.33740234 65.44677734 133.02636719 C62.52647858 143.92847644 60.99835865 154.76846515 60 166 C59.67 165.34 59.34 164.68 59 164 C58.278125 163.71898437 57.55625 163.43796875 56.8125 163.1484375 C36.92319818 155.02697259 17.99641996 131.15249482 8 113 C7.66516602 112.39994141 7.33033203 111.79988281 6.98535156 111.18164062 C-8.86819961 82.45173099 -15.04106546 44.96035716 -6 13 C-4.39143829 8.47303241 -2.32965986 4.19941924 0 0 Z " fill="#C5962A" transform="translate(244,500)"/>
<path d="M0 0 C6.28059651 2.13071747 10.31528884 6.45877157 15 11 C15.70769531 11.68191406 16.41539062 12.36382812 17.14453125 13.06640625 C32.21946001 28.73600675 36.85114311 49.88550869 36.453125 70.98046875 C36.09217214 78.21178048 34.23815092 83.02598693 30.21582031 89.11816406 C28.78984597 91.32527454 27.48647923 93.58753271 26.1796875 95.8671875 C20.68203551 105.3872511 14.90173921 114.42970845 8 123 C6.94425781 124.34191406 6.94425781 124.34191406 5.8671875 125.7109375 C-3.82246655 137.83168755 -14.27633614 148.49931978 -26.16699219 158.45214844 C-27.91530798 159.9284833 -29.63679178 161.43024176 -31.3515625 162.9453125 C-38.7713458 169.45524907 -46.565904 174.87884725 -55 180 C-64.01048637 172.05889003 -68.40772384 156.920337 -69.17578125 145.35253906 C-70.28835342 121.44018438 -65.76598642 101.3787762 -49.390625 83.21484375 C-46.04078639 79.71346482 -42.41562219 76.70204773 -38.625 73.6875 C-15.58556777 54.98564164 -4.83920057 28.55861549 0 0 Z " fill="#222222" transform="translate(499,280)"/>
<path d="M0 0 C0.91386475 0.00491455 1.82772949 0.0098291 2.76928711 0.01489258 C16.83066882 0.25624188 29.7435572 3.84375439 41.75 11.3125 C41.68362307 14.63134674 41.55298329 17.29378985 39.44140625 19.97265625 C29.74248252 28.73080678 17.86269072 30.17355313 5.3125 30.75 C-7.94053236 31.4038221 -19.78268825 34.0914561 -29.125 44.1875 C-35.51244121 52.15301492 -38.64794936 60.83309287 -38.09765625 71.17578125 C-36.68801074 80.66739436 -32.49500883 90.20698191 -24.8046875 96.2265625 C-23.92039063 96.79117188 -23.03609375 97.35578125 -22.125 97.9375 C-20.82175781 98.79214844 -20.82175781 98.79214844 -19.4921875 99.6640625 C-11.55687418 103.69864349 -3.72871763 104.74625594 5.0625 105.25 C19.14239306 106.29036955 30.14722592 108.52429241 40.3125 118.9375 C41.75 121.3125 41.75 121.3125 41.73046875 123.23828125 C39.39515684 128.17872199 31.7038172 130.36080633 26.75 132.3125 C19.24563704 134.653388 11.58859462 135.87332577 3.75 136.3125 C2.75033203 136.39177734 2.75033203 136.39177734 1.73046875 136.47265625 C-18.57659358 137.36570106 -36.31990237 128.91247437 -51.4375 116 C-64.40442111 103.96653487 -70.93264194 88.03345359 -72.49609375 70.5625 C-73.02158263 51.27396697 -65.00126595 34.44095286 -52.0625 20.5625 C-37.80021018 7.06913363 -19.59519216 -0.12623175 0 0 Z " fill="#1A1A1A" transform="translate(72.25,702.6875)"/>
<path d="M0 0 C1.52375496 -0.01441132 1.52375496 -0.01441132 3.07829285 -0.02911377 C4.74363823 -0.03548859 4.74363823 -0.03548859 6.44262695 -0.04199219 C8.15528496 -0.0505423 8.15528496 -0.0505423 9.90254211 -0.05926514 C12.33296782 -0.06874076 14.76340652 -0.07525922 17.19384766 -0.07910156 C20.87011195 -0.08870832 24.54579332 -0.11966573 28.22192383 -0.15136719 C63.39062328 -0.31148138 63.39062328 -0.31148138 76.5559082 11.84863281 C85.38104717 21.45822858 87.56251862 32.94810622 87.12231445 45.65722656 C85.90787311 56.08639809 81.46681755 66.92361009 73.27075195 73.82128906 C64.34477103 79.81087252 54.86525123 83.31197933 44.06762695 83.25878906 C42.33222656 83.25395508 42.33222656 83.25395508 40.56176758 83.24902344 C39.36358398 83.24064453 38.16540039 83.23226562 36.9309082 83.22363281 C35.71338867 83.21912109 34.49586914 83.21460938 33.24145508 83.20996094 C30.24205595 83.19819859 27.24275732 83.18176107 24.2434082 83.16113281 C24.26435547 83.86608887 24.28530273 84.57104492 24.30688477 85.29736328 C24.39089539 88.54347012 24.44233517 91.7893472 24.4934082 95.03613281 C24.52692383 96.14472656 24.56043945 97.25332031 24.5949707 98.39550781 C24.69991513 107.31578416 23.00606561 113.93589207 18.1184082 121.41113281 C10.82914456 128.38347195 4.173741 131.22233782 -5.7565918 131.16113281 C-5.77992049 114.22851077 -5.79757082 97.29589373 -5.80840397 80.36325932 C-5.81356699 72.50168891 -5.8206098 64.64012847 -5.83203125 56.77856445 C-5.8419779 49.92887806 -5.84844518 43.07919889 -5.85068029 36.22950548 C-5.85198743 32.60043885 -5.85507348 28.97139287 -5.86232185 25.34233284 C-5.87033536 21.29762977 -5.87058295 17.25296293 -5.87011719 13.20825195 C-5.87371246 11.99625122 -5.87730774 10.78425049 -5.88101196 9.53552246 C-5.8796373 8.44030777 -5.87826263 7.34509308 -5.87684631 6.21669006 C-5.87776811 5.25894715 -5.8786899 4.30120424 -5.87963963 3.31443882 C-5.64940235 -0.71465544 -3.52769881 0.02685025 0 0 Z M24.2434082 26.16113281 C24.1505356 27.57338327 24.12594049 28.99022216 24.12988281 30.40551758 C24.12995834 31.30637589 24.13003387 32.20723419 24.13011169 33.13539124 C24.13527298 34.11455002 24.14043427 35.0937088 24.14575195 36.10253906 C24.1471669 37.09994614 24.14858185 38.09735321 24.15003967 39.12498474 C24.15565706 42.32456405 24.16821249 45.5240745 24.1809082 48.72363281 C24.18592096 50.88704326 24.19048426 53.05045481 24.19458008 55.21386719 C24.20563213 60.52964607 24.22238717 65.84538452 24.2434082 71.16113281 C25.551666 69.19874612 26.80503077 67.19835128 27.9934082 65.16113281 C31.56329126 60.40128874 35.69794373 59.29323352 41.2434082 57.78613281 C46.5386204 56.26296183 50.37619482 54.16799022 53.3762207 49.33691406 C55.06750014 45.09347872 54.75682583 40.63891437 54.2434082 36.16113281 C51.75840593 30.69412781 48.4707345 28.68145085 43.2434082 26.16113281 C39.54687781 24.91263579 35.93218415 25.02809908 32.0559082 25.03613281 C30.80422852 25.03355469 29.55254883 25.03097656 28.26293945 25.02832031 C25.36413284 24.81529081 25.36413284 24.81529081 24.2434082 26.16113281 Z " fill="#1A1A1A" transform="translate(549.756591796875,704.8388671875)"/>
<path d="M0 0 C0.09292985 13.3526073 0.16388159 26.70513689 0.20724869 40.05800247 C0.22806912 46.25916263 0.25628549 52.46010053 0.30175781 58.66113281 C0.34541316 64.65229204 0.36917875 70.64323829 0.37950897 76.63454437 C0.38686506 78.91335143 0.4012293 81.19214764 0.42292023 83.47086334 C0.67871902 111.47260968 0.67871902 111.47260968 -8.2421875 122.25390625 C-18.31728792 132.26183934 -30.38364215 133.95861289 -44 134 C-53.16756997 133.52022618 -63.68124416 128.98331849 -70.4140625 122.7734375 C-70.93742188 122.18820312 -71.46078125 121.60296875 -72 121 C-70.26403611 114.37177426 -67.25849842 110.56357583 -61.75 106.75 C-56.85169216 104.46036952 -51.50060027 104.20044761 -46.16699219 103.85839844 C-41.11076782 103.4552826 -38.05648651 102.28234786 -34 99 C-29.38011963 91.52019369 -30.90946829 79.79877334 -31.04296875 71.37890625 C-31.06535132 68.95508625 -31.08680733 66.53125755 -31.10742188 64.10742188 C-31.14448599 60.33105499 -31.18761539 56.55514137 -31.24682617 52.77905273 C-31.30162148 49.10393877 -31.33048442 45.42932841 -31.35546875 41.75390625 C-31.37925095 40.63899307 -31.40303314 39.5240799 -31.42753601 38.37538147 C-31.46558791 26.86183102 -28.38250269 18.44187267 -20.36328125 10.16015625 C-15.12193396 5.36930492 -7.3935609 0 0 0 Z " fill="#242424" transform="translate(281,705)"/>
<path d="M0 0 C0.09283563 13.77830216 0.16383411 27.55652943 0.20724869 41.3350811 C0.22808951 47.73359124 0.25634364 54.13188678 0.30175781 60.53027344 C0.34533977 66.70945459 0.36916346 72.8884298 0.37950897 79.06775284 C0.38687812 81.42078008 0.40126824 83.77379653 0.42292023 86.12673569 C0.45211756 89.43222833 0.45594908 92.73687884 0.45410156 96.04248047 C0.46848267 97.00705673 0.48286377 97.971633 0.49768066 98.96543884 C0.43961385 108.61808932 -2.57821896 116.30207165 -9.20703125 123.3125 C-15.96895899 129.67666728 -22.07277545 131.10998634 -31 131 C-31.06963256 117.48244063 -31.12287866 103.96492422 -31.15543652 90.44722176 C-31.17106577 84.169828 -31.19225418 77.89255731 -31.22631836 71.61523438 C-31.25900923 65.55277172 -31.27687361 59.49042717 -31.28463173 53.42788315 C-31.29015777 51.11952736 -31.30094866 48.81117774 -31.31719017 46.50287247 C-31.33909343 43.25975018 -31.3419615 40.01711061 -31.34057617 36.77392578 C-31.351362 35.82805099 -31.36214783 34.88217621 -31.3732605 33.90763855 C-31.32711377 23.86776706 -29.00301503 15.39941211 -22 8 C-15.90741013 2.26579777 -8.26949997 -0.10575468 0 0 Z " fill="#242424" transform="translate(427,705)"/>
</svg>
