<?xml version="1.0" encoding="UTF-8"?>
<svg version="1.1" xmlns="http://www.w3.org/2000/svg" width="477" height="669">
<path d="M0 0 C6.76339365 4.68427193 12.52386144 10.1742179 18.3125 16 C18.77665314 16.46664063 19.24080627 16.93328125 19.71902466 17.4140625 C27.12551269 24.8819219 33.95792291 32.39827934 40 41 C40.52045898 41.72493652 41.04091797 42.44987305 41.57714844 43.19677734 C71.21871781 84.74104944 87.2048832 133.16804631 87.25 184.1875 C87.25067474 184.88253632 87.25134949 185.57757263 87.25204468 186.29367065 C87.15036199 252.92244287 59.07823302 312.47045401 12.7109375 359.3125 C11.45065719 360.55818247 10.18894615 361.80242118 8.92504883 363.04443359 C7.09519798 364.90329286 5.37850236 366.81385596 3.67578125 368.7890625 C-6.06192286 379.98530002 -16.46182765 390.56143589 -26.9375 401.0625 C-27.42750488 401.55509308 -27.91750977 402.04768616 -28.42236328 402.5552063 C-34.10224306 408.25876812 -39.88568937 413.76259268 -46 419 C-47.5448126 420.4132355 -49.08695325 421.82940409 -50.625 423.25 C-54.61579396 426.86013362 -58.74924857 430.20714022 -63 433.5 C-77.49290297 444.7599752 -90.74554276 457.48524991 -102 472 C-103.07666624 473.35949909 -104.15350159 474.71886427 -105.23046875 476.078125 C-111.25926367 483.75494439 -116.70628877 491.20413469 -121 500 C-89.40673053 516.69705677 -55.6630047 527.39564497 -19.75 528.84375 C-17.24515201 528.94811867 -14.74243829 529.13623585 -12.25 529.40625 C-7.07842645 529.80749278 -3.53095803 530.08017594 0.8125 527.015625 C3.36301869 524.44955437 5.68265552 521.77671188 8 519 C10.55463718 516.53105296 13.26831257 514.27037598 16 512 C16.50595703 511.57493164 17.01191406 511.14986328 17.53320312 510.71191406 C31.44686157 499.07460042 46.06879829 489.83184569 62.19360352 481.55078125 C111.58352373 456.18364096 143.39688316 422.03663419 171.47290039 374.5769043 C171.97684326 373.72652588 172.48078613 372.87614746 173 372 C173.51876709 371.06518799 174.03753418 370.13037598 174.57202148 369.16723633 C175.04325439 368.45204834 175.5144873 367.73686035 176 367 C176.66 367 177.32 367 178 367 C194.01685154 428.34517446 187.69158034 494.17039991 155.54931641 549.49707031 C149.37137946 559.84798324 142.67024758 569.69827548 135 579 C134.54157715 579.55993652 134.0831543 580.11987305 133.61083984 580.69677734 C123.17761147 593.36847163 111.96735072 604.90007754 99 615 C98.06414062 615.76441406 97.12828125 616.52882813 96.1640625 617.31640625 C65.35844858 641.98465493 27.87284564 657.78718906 -11 664 C-12.73334595 664.27710815 -12.73334595 664.27710815 -14.50170898 664.55981445 C-24.95958205 666.05265942 -35.29671677 666.34025344 -45.85229492 666.31567383 C-48.66690213 666.31252306 -51.48044415 666.33604324 -54.29492188 666.36132812 C-71.36697951 666.42182872 -87.98524392 664.38862519 -104.5625 660.25 C-106.13161133 659.86158936 -106.13161133 659.86158936 -107.73242188 659.46533203 C-138.95745528 651.51653701 -169.63519206 637.13485382 -194.40283203 616.33691406 C-195.98171311 615.0153071 -197.5797561 613.72083344 -199.18359375 612.4296875 C-212.45371629 601.62828321 -224.53366934 589.52025573 -234.70117188 575.74755859 C-236.03331039 573.95518125 -237.39641418 572.18995673 -238.765625 570.42578125 C-245.3749287 561.80625334 -250.81269654 552.78530315 -255.85644531 543.17285156 C-256.91371201 541.16395455 -257.99679399 539.1714131 -259.0859375 537.1796875 C-287.08203213 484.87191578 -290.76071293 419.98283429 -274.1875 363.625 C-260.18017002 318.44591754 -232.93019509 275.83948718 -195 247 C-194.47567383 246.59394531 -193.95134766 246.18789062 -193.41113281 245.76953125 C-181.78254685 236.79024052 -169.31645642 229.23932092 -156.75878906 221.64453125 C-146.35916411 215.34172825 -136.59539131 208.47093038 -127 201 C-126.09765625 200.30132812 -125.1953125 199.60265625 -124.265625 198.8828125 C-121.81602311 196.95355088 -119.404247 194.98546681 -117 193 C-116.01644531 192.20207031 -115.03289062 191.40414062 -114.01953125 190.58203125 C-106.35476355 184.26075092 -99.2314889 177.44063983 -92.1875 170.4375 C-91.31633545 169.57552002 -90.4451709 168.71354004 -89.54760742 167.82543945 C-83.60842853 161.85801911 -78.25973482 155.56753926 -73 149 C-71.44049815 147.1849197 -69.87866188 145.37183674 -68.3125 143.5625 C-55.8200137 128.53670765 -45.60919007 111.96934869 -36 95 C-35.61118652 94.32163086 -35.22237305 93.64326172 -34.82177734 92.94433594 C-19.70698004 66.44644624 -9.774124 37.20836575 -2.72680664 7.64941406 C-1.99986182 4.9994963 -1.06988039 2.5287561 0 0 Z " fill="#D4AA41" transform="translate(289,0)"/>
<path d="M0 0 C6.76339365 4.68427193 12.52386144 10.1742179 18.3125 16 C18.77665314 16.46664063 19.24080627 16.93328125 19.71902466 17.4140625 C27.12551269 24.8819219 33.95792291 32.39827934 40 41 C40.52045898 41.72493652 41.04091797 42.44987305 41.57714844 43.19677734 C71.21871781 84.74104944 87.2048832 133.16804631 87.25 184.1875 C87.25067474 184.88253632 87.25134949 185.57757263 87.25204468 186.29367065 C87.15036199 252.92244287 59.07823302 312.47045401 12.7109375 359.3125 C11.45065719 360.55818247 10.18894615 361.80242118 8.92504883 363.04443359 C7.09519798 364.90329286 5.37850236 366.81385596 3.67578125 368.7890625 C-6.06192286 379.98530002 -16.46182765 390.56143589 -26.9375 401.0625 C-27.42750488 401.55509308 -27.91750977 402.04768616 -28.42236328 402.5552063 C-34.10224306 408.25876812 -39.88568937 413.76259268 -46 419 C-47.5448126 420.4132355 -49.08695325 421.82940409 -50.625 423.25 C-55.18244169 427.37273187 -59.95296546 431.14214629 -64.80908203 434.89990234 C-69.34302505 438.42905908 -73.63589031 442.16161865 -77.8671875 446.05078125 C-80.50620497 448.46263055 -83.23029213 450.74050147 -86 453 C-86.495 451.515 -86.495 451.515 -87 450 C-88.56887396 448.63576177 -90.14371415 447.27784801 -91.74609375 445.953125 C-94.58703487 443.49130427 -97.26675687 440.89402708 -99.9375 438.25 C-100.43427246 437.76595703 -100.93104492 437.28191406 -101.44287109 436.78320312 C-102.66876653 435.56116406 -103.83950489 434.28430923 -105 433 C-105 432.34 -105 431.68 -105 431 C-105.99 430.175 -106.98 429.35 -108 428.5 C-108.99 427.675 -109.98 426.85 -111 426 C-111 425.34 -111 424.68 -111 424 C-112.83393715 422.03958443 -114.74807216 420.22493557 -116.75 418.4375 C-118 417 -118 417 -118 414 C-118.99 413.67 -119.98 413.34 -121 413 C-121 412.01 -121 411.02 -121 410 C-121.99 409.67 -122.98 409.34 -124 409 C-126.07530387 406.07920195 -127 404.62453269 -127 401 C-127.66 401 -128.32 401 -129 401 C-129 400.01 -129 399.02 -129 398 C-129.66 397.67 -130.32 397.34 -131 397 C-132.2890625 395.2578125 -132.2890625 395.2578125 -133.625 393.125 C-134.07101563 392.42632812 -134.51703125 391.72765625 -134.9765625 391.0078125 C-136 389 -136 389 -136 386 C-136.66 385.67 -137.32 385.34 -138 385 C-151 362.12 -151 362.12 -151 352 C-151.66 351.67 -152.32 351.34 -153 351 C-154.1875 348.0625 -154.1875 348.0625 -155 345 C-154.67 344.34 -154.34 343.68 -154 343 C-154.66 343 -155.32 343 -156 343 C-156.12375 342.13375 -156.2475 341.2675 -156.375 340.375 C-156.90906893 337.05686191 -156.90906893 337.05686191 -157.9375 334.1875 C-161.15474482 324.53576555 -162.76266922 314.15008296 -163.78515625 304.05078125 C-164.21629227 299.93539197 -164.86328249 295.84581209 -165.5234375 291.76171875 C-166.27381095 285.69527019 -166.1489154 279.58394994 -166.13037109 273.48144531 C-166.12499483 271.37297433 -166.13035025 269.26471465 -166.13671875 267.15625 C-166.13605817 265.7994787 -166.13477742 264.44270754 -166.1328125 263.0859375 C-166.13168457 261.8695459 -166.13055664 260.6531543 -166.12939453 259.39990234 C-166.00661304 256.17376065 -165.58706343 253.16991639 -165 250 C-164.83540114 248.06400392 -164.68967789 246.12631391 -164.5625 244.1875 C-164.21037074 239.68248123 -163.58136819 235.41976632 -162.5 231.03515625 C-161.92252545 228.94247288 -161.92252545 228.94247288 -161.83984375 226.49609375 C-160.59183682 222.78690105 -157.84376981 221.7360689 -154.5625 220 C-141.09933667 212.40606764 -128.76857601 202.99121042 -117 193 C-115.99710938 192.18144531 -114.99421875 191.36289063 -113.9609375 190.51953125 C-106.31632771 184.21686117 -99.21230694 177.4216013 -92.1875 170.4375 C-91.31625488 169.57543945 -90.44500977 168.71337891 -89.54736328 167.82519531 C-83.60826903 161.85785732 -78.25966082 155.56744686 -73 149 C-71.44049815 147.1849197 -69.87866188 145.37183674 -68.3125 143.5625 C-55.8200137 128.53670765 -45.60919007 111.96934869 -36 95 C-35.61118652 94.32163086 -35.22237305 93.64326172 -34.82177734 92.94433594 C-19.70698004 66.44644624 -9.774124 37.20836575 -2.72680664 7.64941406 C-1.99986182 4.9994963 -1.06988039 2.5287561 0 0 Z " fill="#DCB64E" transform="translate(289,0)"/>
<path d="M0 0 C0.66 0 1.32 0 2 0 C18.01685154 61.34517446 11.69158034 127.17039991 -20.45068359 182.49707031 C-26.62862054 192.84798324 -33.32975242 202.69827548 -41 212 C-41.45842285 212.55993652 -41.9168457 213.11987305 -42.38916016 213.69677734 C-52.82238853 226.36847163 -64.03264928 237.90007754 -77 248 C-77.93585938 248.76441406 -78.87171875 249.52882813 -79.8359375 250.31640625 C-119.92298442 282.41695925 -170.81036887 299.6742005 -222 299.125 C-223.66145283 299.11493256 -225.32291169 299.10581347 -226.984375 299.09765625 C-230.98973681 299.07598111 -234.99479835 299.04166743 -239 299 C-239.58966776 252.00347931 -213.40572772 205.0427941 -184 170 C-183.47148437 169.33613281 -182.94296875 168.67226563 -182.3984375 167.98828125 C-181.30967095 166.62254777 -180.16256841 165.3034858 -179 164 C-178.34 164 -177.68 164 -177 164 C-176.90847656 163.41863281 -176.81695312 162.83726562 -176.72265625 162.23828125 C-174.50473657 155.36872461 -165.43757174 149.54587991 -160 145 C-159.49114258 144.57203125 -158.98228516 144.1440625 -158.45800781 143.703125 C-144.54733743 132.06961777 -129.92689022 122.82963148 -113.80639648 114.55078125 C-64.41647627 89.18364096 -32.60311684 55.03663419 -4.52709961 7.5769043 C-3.7711853 6.30133667 -3.7711853 6.30133667 -3 5 C-2.48123291 4.06518799 -1.96246582 3.13037598 -1.42797852 2.16723633 C-0.95674561 1.45204834 -0.4855127 0.73686035 0 0 Z " fill="#202020" transform="translate(465,367)"/>
<path d="M0 0 C4.79049607 1.38462843 9.0481683 3.45425968 13.484375 5.68115234 C47.53724758 22.69033211 84.1221394 29.48979992 122 29 C122 31 122 31 120 33.0625 C119.30583984 33.73732422 119.30583984 33.73732422 118.59765625 34.42578125 C84.75693305 67.77006352 64.1506473 119.30521792 60 166 C59.67 165.34 59.34 164.68 59 164 C58.278125 163.71898437 57.55625 163.43796875 56.8125 163.1484375 C36.92319818 155.02697259 17.99641996 131.15249482 8 113 C7.66516602 112.39994141 7.33033203 111.79988281 6.98535156 111.18164062 C-8.86819961 82.45173099 -15.04106546 44.96035716 -6 13 C-4.39143829 8.47303241 -2.32965986 4.19941924 0 0 Z " fill="#C5962A" transform="translate(166,500)"/>
<path d="M0 0 C6.28059651 2.13071747 10.31528884 6.45877157 15 11 C15.70769531 11.68191406 16.41539062 12.36382812 17.14453125 13.06640625 C32.21946001 28.73600675 36.85114311 49.88550869 36.453125 70.98046875 C36.09217214 78.21178048 34.23815092 83.02598693 30.21582031 89.11816406 C28.78984597 91.32527454 27.48647923 93.58753271 26.1796875 95.8671875 C20.68203551 105.3872511 14.90173921 114.42970845 8 123 C6.94425781 124.34191406 6.94425781 124.34191406 5.8671875 125.7109375 C-3.82246655 137.83168755 -14.27633614 148.49931978 -26.16699219 158.45214844 C-27.91530798 159.9284833 -29.63679178 161.43024176 -31.3515625 162.9453125 C-38.7713458 169.45524907 -46.565904 174.87884725 -55 180 C-64.01048637 172.05889003 -68.40772384 156.920337 -69.17578125 145.35253906 C-70.28835342 121.44018438 -65.76598642 101.3787762 -49.390625 83.21484375 C-46.04078639 79.71346482 -42.41562219 76.70204773 -38.625 73.6875 C-15.58556777 54.98564164 -4.83920057 28.55861549 0 0 Z " fill="#222222" transform="translate(421,280)"/>
</svg>
