<svg width="39" height="39" viewBox="0 0 39 39" fill="none" xmlns="http://www.w3.org/2000/svg">
<path d="M38.0885 33.2196H37.1614V14.5663C37.1614 13.5608 36.7625 12.5962 36.0522 11.8845C35.342 11.1727 34.3783 10.7717 33.3727 10.7696H31.0995V5.93293C31.0941 5.79043 31.0509 5.65192 30.9744 5.53155C30.898 5.41117 30.7909 5.31324 30.6642 5.24774L19.7496 0.0725496C19.6632 0.0323643 19.5704 0.0078012 19.4755 0H19.411C19.3143 0.00173719 19.2188 0.0208505 19.1289 0.0564271L8.1739 5.2558C8.04722 5.3213 7.94018 5.41923 7.86371 5.53961C7.78724 5.65998 7.74407 5.79849 7.73861 5.94099V10.7776H5.46539C4.45843 10.7776 3.49271 11.1776 2.78068 11.8897C2.06865 12.6017 1.66864 13.5674 1.66864 14.5744V33.2196H0.7658C0.567167 33.2292 0.379091 33.3119 0.23773 33.4517C0.0963693 33.5916 0.0117001 33.7788 0 33.9773V34.598C0.0021306 35.7198 0.448691 36.795 1.24189 37.5882C2.03509 38.3814 3.1103 38.8279 4.23205 38.8301H34.6061C35.7271 38.8279 36.8015 38.3811 37.5934 37.5877C38.3853 36.7943 38.8301 35.719 38.8301 34.598V33.9773C38.8301 33.7764 38.7502 33.5836 38.6081 33.4415C38.466 33.2994 38.2733 33.2196 38.0723 33.2196H38.0885ZM3.19217 14.5663C3.19217 13.9627 3.43141 13.3836 3.85749 12.9561C4.28357 12.5285 4.86176 12.2872 5.46539 12.285H7.76279C7.93286 15.6087 9.12074 18.7997 11.1654 21.4255C13.2101 24.0513 16.0127 25.9849 19.1934 26.9642C19.2681 26.9765 19.3443 26.9765 19.4191 26.9642C19.4938 26.976 19.57 26.976 19.6448 26.9642C21.3023 26.4527 22.8652 25.6739 24.2718 24.6588C24.3534 24.6016 24.4229 24.529 24.4763 24.445C24.5298 24.361 24.5662 24.2673 24.5834 24.1692C24.6006 24.0711 24.5983 23.9706 24.5767 23.8734C24.555 23.7762 24.5144 23.6842 24.4572 23.6028C24.3331 23.4469 24.1557 23.3426 23.9592 23.3099C23.7627 23.2771 23.5611 23.3183 23.3932 23.4254C22.1799 24.3034 20.8398 24.9912 19.4191 25.4649C16.4588 24.5141 13.8784 22.6451 12.0521 20.1289C10.2258 17.6126 9.24856 14.58 9.26215 11.4709V6.4166L19.4191 1.57997L29.5841 6.4166V11.4548C29.5853 14.28 28.7708 17.0455 27.2383 19.4191C27.1409 19.591 27.1101 19.7928 27.1517 19.986C27.1933 20.1792 27.3045 20.3504 27.464 20.467C27.5473 20.5221 27.6407 20.56 27.7389 20.5785C27.837 20.597 27.9378 20.5956 28.0354 20.5746C28.1331 20.5536 28.2255 20.5133 28.3073 20.456C28.3891 20.3988 28.4587 20.3258 28.5119 20.2413C30.0552 17.8627 30.9398 15.1172 31.0753 12.285H33.3727C33.6737 12.2829 33.9721 12.3404 34.2507 12.454C34.5293 12.5677 34.7827 12.7354 34.9963 12.9475C35.2098 13.1595 35.3793 13.4117 35.495 13.6896C35.6106 13.9674 35.6702 14.2654 35.6701 14.5663V33.2196H3.19217V14.5663ZM34.6303 37.3146H4.23205C3.53609 37.3134 2.86713 37.0452 2.36315 36.5652C1.85918 36.0852 1.55864 35.4301 1.52354 34.7351H37.2824C37.2472 35.4301 36.9467 36.0852 36.4427 36.5652C35.9388 37.0452 35.2698 37.3134 34.5738 37.3146H34.6303Z" fill="black" fill-opacity="0.25"/>
<path d="M21.8937 35.2672H16.9443C16.7433 35.2672 16.5506 35.347 16.4085 35.4891C16.2664 35.6313 16.1865 35.824 16.1865 36.0249C16.1865 36.2259 16.2664 36.4186 16.4085 36.5608C16.5506 36.7029 16.7433 36.7827 16.9443 36.7827H21.8937C22.0947 36.7827 22.2874 36.7029 22.4295 36.5608C22.5717 36.4186 22.6515 36.2259 22.6515 36.0249C22.6515 35.824 22.5717 35.6313 22.4295 35.4891C22.2874 35.347 22.0947 35.2672 21.8937 35.2672Z" fill="black" fill-opacity="0.25"/>
<path d="M33.0505 22.563H30.9224C30.7214 22.563 30.5287 22.6428 30.3865 22.7849C30.2444 22.927 30.1646 23.1198 30.1646 23.3207C30.1646 23.5217 30.2444 23.7144 30.3865 23.8565C30.5287 23.9986 30.7214 24.0785 30.9224 24.0785H31.2206L26.4888 28.8103L24.9733 27.2868C24.9021 27.2167 24.8177 27.1613 24.725 27.124C24.6323 27.0866 24.5331 27.068 24.4332 27.0691C24.3344 27.0672 24.2362 27.0856 24.1447 27.123C24.0532 27.1604 23.9704 27.2162 23.9012 27.2868L20.7251 30.4628C20.6547 30.5332 20.5988 30.6168 20.5607 30.7087C20.5226 30.8007 20.5029 30.8993 20.5029 30.9989C20.5029 31.0984 20.5226 31.197 20.5607 31.289C20.5988 31.381 20.6547 31.4646 20.7251 31.5349C20.8717 31.6722 21.0644 31.7499 21.2652 31.7526C21.3639 31.7531 21.4616 31.7341 21.5529 31.6968C21.6442 31.6594 21.7272 31.6044 21.7972 31.5349L24.4332 28.899L25.9971 30.4144C26.0658 30.4861 26.1484 30.5431 26.2399 30.5819C26.3314 30.6207 26.4297 30.6405 26.5291 30.6402C26.731 30.6353 26.9238 30.5547 27.0692 30.4144L32.333 25.1506V25.465C32.333 25.6659 32.4129 25.8587 32.555 26.0008C32.6971 26.1429 32.8898 26.2227 33.0908 26.2227C33.2917 26.2227 33.4845 26.1429 33.6266 26.0008C33.7687 25.8587 33.8485 25.6659 33.8485 25.465V23.3207C33.8485 23.1198 33.7687 22.927 33.6266 22.7849C33.4845 22.6428 33.2917 22.563 33.0908 22.563H33.0505Z" fill="black" fill-opacity="0.25"/>
<path d="M12.9703 27.2062H5.99749C5.79652 27.2062 5.60379 27.286 5.46168 27.4281C5.31958 27.5702 5.23975 27.7629 5.23975 27.9639C5.23975 28.1649 5.31958 28.3576 5.46168 28.4997C5.60379 28.6418 5.79652 28.7217 5.99749 28.7217H12.9703C13.1713 28.7217 13.364 28.6418 13.5061 28.4997C13.6482 28.3576 13.728 28.1649 13.728 27.9639C13.728 27.7629 13.6482 27.5702 13.5061 27.4281C13.364 27.286 13.1713 27.2062 12.9703 27.2062Z" fill="black" fill-opacity="0.25"/>
<path d="M15.0097 30.4628C14.9406 30.3915 14.8579 30.3347 14.7666 30.296C14.6752 30.2572 14.5769 30.2372 14.4776 30.2371C14.2767 30.2371 14.0839 30.3169 13.9418 30.459C13.7997 30.6011 13.7199 30.7938 13.7199 30.9948C13.7177 31.0949 13.7358 31.1944 13.7731 31.2874C13.8104 31.3803 13.8661 31.4647 13.9369 31.5355C14.0077 31.6063 14.0922 31.662 14.1851 31.6993C14.278 31.7366 14.3775 31.7547 14.4776 31.7525C14.6757 31.7478 14.8651 31.6704 15.0097 31.5349C15.1499 31.3895 15.2305 31.1968 15.2354 30.9948C15.2357 30.8955 15.2159 30.7971 15.1771 30.7056C15.1383 30.6142 15.0814 30.5315 15.0097 30.4628Z" fill="black" fill-opacity="0.25"/>
<path d="M11.1807 30.2371H5.99749C5.79652 30.2371 5.60379 30.3169 5.46168 30.459C5.31958 30.6011 5.23975 30.7938 5.23975 30.9948C5.23975 31.1958 5.31958 31.3885 5.46168 31.5306C5.60379 31.6727 5.79652 31.7525 5.99749 31.7525H11.1807C11.3817 31.7525 11.5744 31.6727 11.7165 31.5306C11.8586 31.3885 11.9385 31.1958 11.9385 30.9948C11.9385 30.7938 11.8586 30.6011 11.7165 30.459C11.5744 30.3169 11.3817 30.2371 11.1807 30.2371Z" fill="black" fill-opacity="0.25"/>
<path d="M10.1891 24.1671H5.99739C5.80887 24.1865 5.63425 24.2752 5.50729 24.4159C5.38033 24.5566 5.31006 24.7394 5.31006 24.9289C5.31006 25.1184 5.38033 25.3012 5.50729 25.4419C5.63425 25.5826 5.80887 25.6712 5.99739 25.6907H10.1891C10.3777 25.6712 10.5523 25.5826 10.6792 25.4419C10.8062 25.3012 10.8765 25.1184 10.8765 24.9289C10.8765 24.7394 10.8062 24.5566 10.6792 24.4159C10.5523 24.2752 10.3777 24.1865 10.1891 24.1671Z" fill="black" fill-opacity="0.25"/>
<path d="M26.4562 21.7407C26.3858 21.6703 26.3023 21.6144 26.2103 21.5763C26.1183 21.5382 26.0197 21.5186 25.9201 21.5186C25.8206 21.5186 25.722 21.5382 25.63 21.5763C25.538 21.6144 25.4545 21.6703 25.3841 21.7407L25.3438 21.7891C25.2733 21.8595 25.2175 21.943 25.1793 22.035C25.1412 22.127 25.1216 22.2256 25.1216 22.3252C25.1216 22.4247 25.1412 22.5233 25.1793 22.6153C25.2175 22.7073 25.2733 22.7909 25.3438 22.8612C25.4904 22.9985 25.683 23.0762 25.8839 23.0789C26.0858 23.074 26.2786 22.9934 26.424 22.8532V22.8048C26.4944 22.7344 26.5503 22.6509 26.5884 22.5589C26.6265 22.4669 26.6462 22.3683 26.6462 22.2687C26.6462 22.1692 26.6265 22.0706 26.5884 21.9786C26.5503 21.8866 26.4944 21.8031 26.424 21.7327L26.4562 21.7407Z" fill="black" fill-opacity="0.25"/>
<path d="M27.6092 7.17439L19.7255 3.426C19.6227 3.38046 19.5115 3.35693 19.399 3.35693C19.2866 3.35693 19.1754 3.38046 19.0726 3.426L11.1808 7.17439C11.0556 7.24095 10.9502 7.33934 10.8752 7.45964C10.8002 7.57993 10.7582 7.71789 10.7536 7.85958V11.4548C10.7412 14.112 11.5372 16.7101 13.036 18.9043C14.5348 21.0984 16.6654 22.7849 19.1451 23.7398C19.233 23.7717 19.3257 23.7881 19.4192 23.7882C19.5127 23.7881 19.6054 23.7717 19.6933 23.7398C22.1693 22.7814 24.2959 21.0936 25.7915 18.8998C27.2871 16.7061 28.0812 14.1098 28.0687 11.4548V7.85958C28.0686 7.71584 28.0276 7.5751 27.9505 7.45378C27.8735 7.33245 27.7635 7.23555 27.6334 7.17439H27.6092ZM26.529 11.4548C26.5479 13.7552 25.8819 16.0092 24.6158 17.9299C23.3497 19.8506 21.5408 21.3511 19.4192 22.2405C17.2946 21.3536 15.4822 19.8541 14.2131 17.9332C12.944 16.0123 12.2756 13.757 12.2932 11.4548V8.33518L19.4192 4.9576L26.5532 8.33518L26.529 11.4548Z" fill="black" fill-opacity="0.25"/>
<path d="M23.9012 10.5117C23.8308 10.4413 23.7473 10.3854 23.6553 10.3473C23.5633 10.3092 23.4647 10.2896 23.3652 10.2896C23.2656 10.2896 23.167 10.3092 23.075 10.3473C22.983 10.3854 22.8995 10.4413 22.8291 10.5117L18.5003 14.8325L16.6463 12.9704C16.5759 12.8994 16.4922 12.8431 16.4 12.8045C16.3078 12.7659 16.209 12.7458 16.109 12.7455C15.9072 12.7447 15.7134 12.8242 15.5701 12.9663C15.4269 13.1085 15.346 13.3018 15.3452 13.5036C15.3445 13.7054 15.4239 13.8992 15.5661 14.0425L17.9844 16.4608C18.0544 16.5303 18.1374 16.5853 18.2287 16.6226C18.32 16.66 18.4178 16.679 18.5164 16.6784C18.7173 16.6757 18.9099 16.5981 19.0565 16.4608L23.8931 11.6242C24.0246 11.4765 24.0972 11.2858 24.0972 11.0881C24.0972 10.8904 24.0246 10.6997 23.8931 10.5521L23.9012 10.5117Z" fill="black" fill-opacity="0.25"/>
</svg>
