<svg width="38" height="39" viewBox="0 0 38 39" fill="none" xmlns="http://www.w3.org/2000/svg">
<path d="M16.032 15.6083C15.858 15.5206 15.6579 15.5003 15.4699 15.5513C15.2819 15.6023 15.1194 15.721 15.0137 15.8846C14.9282 16.0577 14.9092 16.256 14.9601 16.4422C15.011 16.6284 15.1283 16.7895 15.29 16.895C15.4018 16.9627 15.5302 16.9982 15.661 16.9976C15.7911 16.9939 15.9183 16.9581 16.0312 16.8934C16.1441 16.8287 16.2393 16.737 16.3082 16.6266C16.3959 16.4527 16.4162 16.2525 16.3652 16.0645C16.3142 15.8766 16.1955 15.7141 16.032 15.6083Z" fill="black" fill-opacity="0.25"/>
<path d="M36.5631 21.5679L30.8797 11.6299C31.2343 11.4021 31.5262 11.0892 31.7288 10.7197C31.9315 10.3502 32.0385 9.93584 32.0401 9.51442C32.0511 9.09753 31.956 8.68469 31.7638 8.31459C33.0779 8.01134 34.2504 7.27195 35.0904 6.21693C35.9304 5.16191 36.3883 3.85348 36.3895 2.50491C36.3895 2.30812 36.3113 2.11939 36.1721 1.98023C36.033 1.84108 35.8442 1.76291 35.6475 1.76291C35.4507 1.76291 35.2619 1.84108 35.1228 1.98023C34.9836 2.11939 34.9055 2.30812 34.9055 2.50491C34.9054 3.61471 34.4937 4.68506 33.7501 5.50888C33.0065 6.33271 31.9837 6.85146 30.8797 6.96478L32.0559 5.38607C32.4014 4.9245 32.5966 4.36782 32.6149 3.79155C32.6333 3.21528 32.4739 2.64731 32.1585 2.16468C31.8431 1.68205 31.3868 1.30813 30.8517 1.09364C30.3165 0.879145 29.7283 0.834464 29.1668 0.965655L27.8012 1.2814C27.4618 1.36074 27.1048 1.30407 26.8066 1.12353L25.6621 0.420997C25.2218 0.145876 24.713 0 24.1939 0C23.6747 0 23.1659 0.145876 22.7256 0.420997L21.5811 1.12353C21.2832 1.30488 20.9259 1.3616 20.5865 1.2814L19.2288 0.965655C18.6673 0.834464 18.0791 0.879145 17.544 1.09364C17.0088 1.30813 16.5525 1.68205 16.2371 2.16468C15.9217 2.64731 15.7623 3.21528 15.7807 3.79155C15.799 4.36782 15.9942 4.9245 16.3397 5.38607L17.729 7.23317C17.3284 7.43029 16.9873 7.73041 16.7409 8.10276C16.4944 8.47512 16.3514 8.90631 16.3265 9.35213C16.3016 9.79797 16.3957 10.2424 16.5992 10.6399C16.8026 11.0374 17.1081 11.3736 17.4843 11.6141L16.4266 13.4612C16.3778 13.5457 16.3462 13.6389 16.3336 13.7356C16.3209 13.8323 16.3274 13.9306 16.3527 14.0248C16.3779 14.119 16.4215 14.2073 16.4809 14.2846C16.5403 14.3619 16.6144 14.4268 16.6989 14.4755C16.7834 14.5243 16.8766 14.5559 16.9733 14.5685C17.07 14.5812 17.1683 14.5747 17.2625 14.5494C17.3566 14.5242 17.4449 14.4806 17.5223 14.4212C17.5996 14.3618 17.6645 14.2877 17.7132 14.2032L18.9604 12.0167H29.3957L35.2686 22.2784C36.1014 23.7257 36.5392 25.3665 36.5382 27.0363C36.5372 28.7061 36.0973 30.3464 35.2626 31.7926C34.4279 33.2389 33.2278 34.4404 31.7825 35.2767C30.3372 36.1131 28.6975 36.5549 27.0277 36.5579H21.3285C19.6113 36.5572 17.9261 36.0936 16.4502 35.216L16.3318 35.4133V34.474H17.8158C18.0126 34.474 18.2014 34.3958 18.3405 34.2566C18.4797 34.1175 18.5578 33.9287 18.5578 33.732V30.1719C18.5578 29.9752 18.4797 29.7864 18.3405 29.6473C18.2014 29.5081 18.0126 29.4299 17.8158 29.4299H16.3318V27.3224H17.8158C18.0126 27.3224 18.2014 27.2442 18.3405 27.105C18.4797 26.9659 18.5578 26.7772 18.5578 26.5804V23.044C18.5578 22.8472 18.4797 22.6585 18.3405 22.5194C18.2014 22.3802 18.0126 22.302 17.8158 22.302H13.0797L14.7215 19.4288C14.8262 19.2571 14.8584 19.0509 14.811 18.8555C14.7637 18.6601 14.6406 18.4915 14.469 18.3868C14.2973 18.2821 14.0911 18.2499 13.8957 18.2973C13.7003 18.3447 13.5317 18.4677 13.427 18.6394L11.7693 21.5443C11.6325 21.7811 11.5062 22.0258 11.3905 22.2784H2.96799C2.7712 22.2784 2.58247 22.3565 2.44332 22.4957C2.30417 22.6348 2.22599 22.8236 2.22599 23.0204V25.8384H0.741998C0.545208 25.8384 0.356478 25.9165 0.217326 26.0557C0.0781749 26.1948 0 26.3836 0 26.5804V30.1483C0 30.3451 0.0781749 30.5338 0.217326 30.6729C0.356478 30.8121 0.545208 30.8903 0.741998 30.8903H2.22599V32.9663H0.741998C0.545208 32.9663 0.356478 33.0444 0.217326 33.1836C0.0781749 33.3228 0 33.5115 0 33.7083V37.2762C0 37.473 0.0781749 37.6617 0.217326 37.8009C0.356478 37.94 0.545208 38.0182 0.741998 38.0182H15.5898C15.7866 38.0182 15.9754 37.94 16.1145 37.8009C16.2537 37.6617 16.3318 37.473 16.3318 37.2762V36.8184C17.8789 37.6082 19.5914 38.0194 21.3285 38.0182H27.0277C28.9507 38.0113 30.8384 37.501 32.503 36.5379C34.1675 35.5749 35.5508 34.1927 36.5152 32.5289C37.4796 30.8652 37.9915 28.9779 37.9999 27.0548C38.0083 25.1318 37.5129 23.2401 36.5631 21.5679ZM18.2105 10.3511C18.0304 10.2239 17.8956 10.0425 17.8259 9.83323C17.7562 9.624 17.7553 9.39797 17.8232 9.18815C17.891 8.97833 18.0242 8.79571 18.2033 8.66695C18.3823 8.5382 18.5978 8.47005 18.8183 8.47246H20.0892L18.2105 10.3511ZM22.2205 10.5485H20.105L22.1178 8.53561C22.1427 8.51876 22.1641 8.49733 22.181 8.47246H24.2965L22.2205 10.5485ZM26.3962 10.5485H24.3202L26.333 8.53561L26.3883 8.47246H28.4722L26.3962 10.5485ZM29.5141 10.5485H28.4959L30.2561 8.78821C30.396 8.9351 30.4899 9.11962 30.5264 9.31912C30.5629 9.51862 30.5403 9.72444 30.4616 9.91132C30.3828 10.0982 30.2512 10.258 30.0829 10.3712C29.9146 10.4844 29.7169 10.546 29.5141 10.5485ZM28.9695 6.98847H19.3551L17.5001 4.50988C17.3338 4.29342 17.2387 4.03067 17.2281 3.75789C17.2175 3.48511 17.2918 3.21576 17.4408 2.98704C17.5899 2.75831 17.8062 2.58149 18.06 2.48099C18.3138 2.38049 18.5926 2.36126 18.8578 2.42597L20.2155 2.74171C20.573 2.8284 20.9442 2.84304 21.3074 2.78476C21.6706 2.72649 22.0185 2.59647 22.331 2.40229L23.4755 1.69976C23.6833 1.57198 23.9224 1.50433 24.1662 1.50433C24.4101 1.50433 24.6492 1.57198 24.8569 1.69976L26.0015 2.40229C26.3124 2.59665 26.659 2.72681 27.021 2.78511C27.3829 2.8434 27.7529 2.82865 28.1091 2.74171L29.4747 2.42597C29.7389 2.36613 30.015 2.38862 30.2661 2.49042C30.5171 2.59223 30.7309 2.76846 30.8788 2.99542C31.0266 3.22238 31.1014 3.48918 31.0932 3.75993C31.0849 4.03068 30.9938 4.2924 30.8324 4.50988L28.9695 6.98847ZM3.70999 23.786H17.0738V25.862H14.8478V25.1516C14.8478 24.9548 14.7697 24.7661 14.6305 24.6269C14.4914 24.4878 14.3026 24.4096 14.1058 24.4096C13.9091 24.4096 13.7203 24.4878 13.5812 24.6269C13.442 24.7661 13.3638 24.9548 13.3638 25.1516V25.862H11.1379V25.1516C11.1188 24.967 11.0321 24.796 10.8943 24.6717C10.7565 24.5474 10.5775 24.4786 10.3919 24.4786C10.2063 24.4786 10.0273 24.5474 9.88956 24.6717C9.75178 24.796 9.66498 24.967 9.64597 25.1516V25.862H7.41998V25.1516C7.41998 24.9548 7.3418 24.7661 7.20265 24.6269C7.0635 24.4878 6.87477 24.4096 6.67798 24.4096C6.48119 24.4096 6.29246 24.4878 6.15331 24.6269C6.01415 24.7661 5.93598 24.9548 5.93598 25.1516V25.862H3.70999V23.786ZM1.48399 29.4299V27.3224H14.8478V29.4063H12.6219V28.9248C12.6219 28.728 12.5437 28.5392 12.4045 28.4001C12.2654 28.2609 12.0766 28.1828 11.8799 28.1828C11.6831 28.1828 11.4943 28.2609 11.3552 28.4001C11.216 28.5392 11.1379 28.728 11.1379 28.9248V29.4063H8.8724V28.9248C8.8724 28.728 8.79422 28.5392 8.65507 28.4001C8.51592 28.2609 8.32719 28.1828 8.1304 28.1828C7.93361 28.1828 7.74488 28.2609 7.60573 28.4001C7.46658 28.5392 7.3884 28.728 7.3884 28.9248V29.4063H5.19398V28.9248C5.19398 28.728 5.11581 28.5392 4.97666 28.4001C4.83751 28.2609 4.64878 28.1828 4.45199 28.1828C4.2552 28.1828 4.06646 28.2609 3.92731 28.4001C3.78816 28.5392 3.70999 28.728 3.70999 28.9248V29.4063L1.48399 29.4299ZM14.8478 36.5342H12.6219V35.8632C12.6219 35.6664 12.5437 35.4777 12.4045 35.3386C12.2654 35.1994 12.0766 35.1212 11.8799 35.1212C11.6831 35.1212 11.4943 35.1994 11.3552 35.3386C11.216 35.4777 11.1379 35.6664 11.1379 35.8632V36.5342H8.8724V35.8632C8.8724 35.6664 8.79422 35.4777 8.65507 35.3386C8.51592 35.1994 8.32719 35.1212 8.1304 35.1212C7.93361 35.1212 7.74488 35.1994 7.60573 35.3386C7.46658 35.4777 7.3884 35.6664 7.3884 35.8632V36.5342H5.19398V35.8632C5.19398 35.6664 5.11581 35.4777 4.97666 35.3386C4.83751 35.1994 4.64878 35.1212 4.45199 35.1212C4.2552 35.1212 4.06646 35.1994 3.92731 35.3386C3.78816 35.4777 3.70999 35.6664 3.70999 35.8632V36.5342H1.48399V34.474H14.8478V36.5342ZM14.8478 32.9663V32.4374C14.8478 32.2406 14.7697 32.0519 14.6305 31.9127C14.4914 31.7736 14.3026 31.6954 14.1058 31.6954C13.9091 31.6954 13.7203 31.7736 13.5812 31.9127C13.442 32.0519 13.3638 32.2406 13.3638 32.4374V32.9663H11.1379V32.4374C11.1188 32.2528 11.0321 32.0818 10.8943 31.9575C10.7565 31.8332 10.5775 31.7643 10.3919 31.7643C10.2063 31.7643 10.0273 31.8332 9.88956 31.9575C9.75178 32.0818 9.66498 32.2528 9.64597 32.4374V32.9663H7.41998V32.4374C7.41998 32.2406 7.3418 32.0519 7.20265 31.9127C7.0635 31.7736 6.87477 31.6954 6.67798 31.6954C6.48119 31.6954 6.29246 31.7736 6.15331 31.9127C6.01415 32.0519 5.93598 32.2406 5.93598 32.4374V32.9663H3.70999V30.9139H17.0738V32.99L14.8478 32.9663Z" fill="black" fill-opacity="0.25"/>
<path d="M24.162 25.1043C23.9608 25.0654 23.7748 24.9701 23.6256 24.8296C23.4765 24.6891 23.3703 24.509 23.3196 24.3105C23.2688 24.1119 23.2755 23.903 23.3388 23.7082C23.4022 23.5133 23.5196 23.3404 23.6775 23.2097C23.8353 23.0789 24.027 22.9958 24.2303 22.9698C24.4336 22.9439 24.6401 22.9762 24.8257 23.0631C25.0113 23.1499 25.1684 23.2878 25.2787 23.4605C25.389 23.6332 25.4479 23.8337 25.4487 24.0387C25.4487 24.2354 25.5268 24.4242 25.666 24.5633C25.8051 24.7025 25.9939 24.7807 26.1907 24.7807C26.3875 24.7807 26.5762 24.7025 26.7153 24.5633C26.8545 24.4242 26.9327 24.2354 26.9327 24.0387C26.9181 23.4662 26.7142 22.9148 26.3528 22.4706C25.9915 22.0264 25.4931 21.7145 24.9356 21.5837V21.4811C24.9356 21.2843 24.8574 21.0956 24.7183 20.9565C24.5791 20.8173 24.3904 20.7391 24.1936 20.7391C23.9968 20.7391 23.8081 20.8173 23.6689 20.9565C23.5298 21.0956 23.4516 21.2843 23.4516 21.4811V21.5837C22.8962 21.7172 22.4003 22.0301 22.0407 22.4739C21.6811 22.9177 21.4778 23.4677 21.4624 24.0387C21.4871 24.7387 21.7886 25.4004 22.3006 25.8784C22.8127 26.3564 23.4935 26.6117 24.1936 26.5883C24.5006 26.5663 24.804 26.6656 25.0387 26.8649C25.2733 27.0641 25.4205 27.3474 25.4487 27.6539C25.4268 27.9429 25.2969 28.2131 25.0848 28.4106C24.8727 28.6081 24.5939 28.7184 24.3041 28.7196H24.091C23.8011 28.7184 23.5224 28.6081 23.3103 28.4106C23.0982 28.2131 22.9682 27.9429 22.9464 27.6539C22.9464 27.4571 22.8682 27.2684 22.7291 27.1293C22.5899 26.9901 22.4012 26.9119 22.2044 26.9119C22.0076 26.9119 21.8189 26.9901 21.6797 27.1293C21.5406 27.2684 21.4624 27.4571 21.4624 27.6539C21.4765 28.2253 21.6793 28.7759 22.0391 29.22C22.3989 29.6641 22.8956 29.9766 23.4516 30.1088V30.2825C23.4516 30.4793 23.5298 30.668 23.6689 30.8072C23.8081 30.9463 23.9968 31.0245 24.1936 31.0245C24.3904 31.0245 24.5791 30.9463 24.7183 30.8072C24.8574 30.668 24.9356 30.4793 24.9356 30.2825V30.1088C25.4931 29.9781 25.9915 29.6662 26.3528 29.222C26.7142 28.7778 26.9181 28.2264 26.9327 27.6539C26.9059 26.9532 26.6027 26.2915 26.0894 25.8137C25.5761 25.3359 24.8945 25.0808 24.1936 25.1043H24.162Z" fill="black" fill-opacity="0.25"/>
<path d="M29.7271 20.2813C28.2961 18.8588 26.3747 18.0384 24.3577 17.9885C22.3406 17.9386 20.381 18.663 18.8813 20.0129C18.8088 20.0782 18.7498 20.1571 18.7077 20.2452C18.6657 20.3333 18.6414 20.4289 18.6363 20.5264C18.6312 20.6238 18.6453 20.7214 18.6778 20.8134C18.7104 20.9054 18.7608 20.9902 18.8261 21.0627C18.8914 21.1353 18.9703 21.1943 19.0584 21.2363C19.1466 21.2784 19.2421 21.3026 19.3396 21.3078C19.4371 21.3129 19.5346 21.2988 19.6266 21.2662C19.7187 21.2337 19.8034 21.1833 19.8759 21.118C20.6593 20.3958 21.6108 19.8811 22.6439 19.6208C23.677 19.3604 24.7588 19.3627 25.7909 19.6274C26.8229 19.8921 27.7722 20.4107 28.5525 21.1362C29.3328 21.8616 29.9192 22.7707 30.2583 23.7807C30.5974 24.7907 30.6783 25.8695 30.4939 26.9189C30.3094 27.9682 29.8653 28.9547 29.2021 29.7884C28.5388 30.6222 27.6775 31.2768 26.6966 31.6926C25.7157 32.1084 24.6463 32.2722 23.5859 32.169C23.3956 32.1611 23.2096 32.2267 23.0663 32.3522C22.9231 32.4777 22.8336 32.6535 22.8163 32.8432C22.7991 33.0329 22.8554 33.2219 22.9737 33.3712C23.092 33.5205 23.2631 33.6185 23.4517 33.6451C23.6885 33.6451 23.9332 33.6451 24.17 33.6451C25.715 33.6234 27.2197 33.1487 28.4974 32.28C29.7752 31.4112 30.7699 30.1865 31.3582 28.7578C31.9465 27.329 32.1026 25.759 31.807 24.2424C31.5115 22.7258 30.7773 21.3293 29.6956 20.226L29.7271 20.2813Z" fill="black" fill-opacity="0.25"/>
<path d="M21.3915 31.6007C21.3029 31.5552 21.206 31.5279 21.1066 31.5206C21.0073 31.5132 20.9074 31.526 20.8131 31.5581C20.7188 31.5902 20.6318 31.6409 20.5576 31.7074C20.4833 31.7738 20.4231 31.8545 20.3807 31.9446C20.3383 32.0348 20.3144 32.1326 20.3106 32.2321C20.3068 32.3317 20.3231 32.431 20.3585 32.5242C20.3939 32.6173 20.4477 32.7024 20.5166 32.7743C20.5856 32.8462 20.6684 32.9034 20.76 32.9427C20.8592 32.9879 20.9667 33.0121 21.0757 33.0137C21.2165 33.0136 21.3543 32.9735 21.4731 32.898C21.5919 32.8225 21.6868 32.7148 21.7467 32.5874C21.8208 32.4071 21.8255 32.2056 21.7599 32.022C21.6943 31.8383 21.5631 31.6855 21.3915 31.5929V31.6007Z" fill="black" fill-opacity="0.25"/>
</svg>
