<svg width="38" height="37" viewBox="0 0 38 37" fill="none" xmlns="http://www.w3.org/2000/svg">
<path d="M5.97107 28.3222C5.83323 28.1931 5.65215 28.1201 5.46333 28.1176C5.2744 28.1176 5.09321 28.1926 4.95962 28.3262C4.82603 28.4598 4.75098 28.641 4.75098 28.8299C4.75107 28.9232 4.7699 29.0156 4.80635 29.1015C4.84279 29.1874 4.89612 29.2651 4.96317 29.3301C5.02782 29.3975 5.10549 29.451 5.19147 29.4875C5.27744 29.524 5.36993 29.5426 5.46333 29.5423C5.65318 29.5376 5.83439 29.4619 5.97107 29.3301C6.09842 29.1942 6.17125 29.0161 6.17568 28.8299C6.17312 28.6411 6.10015 28.46 5.97107 28.3222Z" fill="black" fill-opacity="0.25"/>
<path d="M28.2738 15.9091C28.136 15.78 27.9549 15.707 27.7661 15.7045C27.5799 15.7089 27.4018 15.7817 27.2659 15.9091C27.1341 16.0458 27.0583 16.227 27.0537 16.4168C27.0534 16.5102 27.072 16.6027 27.1085 16.6887C27.145 16.7747 27.1985 16.8523 27.2659 16.917C27.3308 16.984 27.4086 17.0373 27.4945 17.0738C27.5804 17.1102 27.6727 17.1291 27.7661 17.1292C27.8596 17.1292 27.9522 17.1107 28.0387 17.0749C28.1251 17.0391 28.2036 16.9867 28.2698 16.9205C28.3359 16.8544 28.3884 16.7758 28.4242 16.6894C28.46 16.603 28.4784 16.5104 28.4784 16.4168C28.4759 16.228 28.4029 16.0469 28.2738 15.9091Z" fill="black" fill-opacity="0.25"/>
<path d="M21.2867 4.23096C18.8886 4.23096 16.5444 4.94208 14.5504 6.27441C12.5564 7.60673 11.0023 9.50042 10.0846 11.716C9.16687 13.9316 8.92676 16.3695 9.39461 18.7216C9.86246 21.0736 11.0173 23.2341 12.713 24.9298C14.4087 26.6256 16.5692 27.7804 18.9213 28.2482C21.2733 28.7161 23.7113 28.4759 25.9268 27.5582C28.1424 26.6405 30.0361 25.0864 31.3684 23.0924C32.7007 21.0985 33.4119 18.7542 33.4119 16.3561C33.4119 13.1403 32.1344 10.0562 29.8605 7.78232C27.5866 5.50842 24.5025 4.23096 21.2867 4.23096ZM21.2867 5.65566C22.853 5.65399 24.4003 5.9974 25.8188 6.66145C27.2373 7.32551 28.4921 8.29391 29.4939 9.49781L28.7361 10.2556C28.45 10.1185 28.1364 10.0485 27.8192 10.051C27.2517 10.051 26.7073 10.2759 26.3053 10.6765C25.9034 11.077 25.6765 11.6206 25.6745 12.1881C25.6814 12.4475 25.7327 12.7038 25.8261 12.9459L21.6884 16.6592C21.4472 16.5645 21.1897 16.5182 20.9306 16.5228C20.4442 16.5232 19.973 16.6919 19.5968 17.0002L16.2094 14.7722C16.2171 14.6865 16.2171 14.6003 16.2094 14.5146C16.2094 13.9478 15.9842 13.4042 15.5834 13.0034C15.1826 12.6027 14.6391 12.3775 14.0723 12.3775C13.5055 12.3775 12.962 12.6027 12.5612 13.0034C12.1604 13.4042 11.9352 13.9478 11.9352 14.5146C11.9329 14.7042 11.9584 14.8932 12.011 15.0754L10.5939 16.0605C10.6592 13.2688 11.8132 10.6132 13.8096 8.66063C15.806 6.7081 18.4867 5.61338 21.2792 5.61019L21.2867 5.65566ZM28.5012 12.2108C28.5012 12.3517 28.4594 12.4894 28.3811 12.6066C28.3029 12.7237 28.1916 12.815 28.0614 12.8689C27.9313 12.9228 27.7881 12.9369 27.6499 12.9095C27.5117 12.882 27.3848 12.8141 27.2851 12.7145C27.1855 12.6149 27.1177 12.488 27.0902 12.3498C27.0627 12.2116 27.0768 12.0684 27.1307 11.9382C27.1846 11.808 27.2759 11.6968 27.3931 11.6185C27.5102 11.5402 27.648 11.4984 27.7888 11.4984C27.9778 11.4984 28.159 11.5735 28.2925 11.7071C28.4261 11.8407 28.5012 12.0219 28.5012 12.2108ZM13.3448 23.5251C11.9115 21.9156 10.9976 19.9108 10.7227 17.7732L12.8598 16.2955C13.024 16.4154 13.2054 16.51 13.3978 16.5758L13.3448 23.5251ZM14.0799 15.2951C13.939 15.2951 13.8013 15.2533 13.6841 15.1751C13.567 15.0968 13.4757 14.9855 13.4218 14.8554C13.3678 14.7252 13.3537 14.582 13.3812 14.4438C13.4087 14.3056 13.4765 14.1787 13.5762 14.0791C13.6758 13.9794 13.8027 13.9116 13.9409 13.8841C14.0791 13.8566 14.2223 13.8707 14.3525 13.9247C14.4826 13.9786 14.5939 14.0699 14.6722 14.187C14.7505 14.3042 14.7922 14.4419 14.7922 14.5828C14.7922 14.7717 14.7172 14.9529 14.5836 15.0865C14.45 15.2201 14.2688 15.2951 14.0799 15.2951ZM20.2106 27.011C18.2399 26.8098 16.3639 26.0646 14.7922 24.8588V16.5758C15.0757 16.4755 15.3341 16.3153 15.55 16.106L18.8238 18.2582C18.793 18.4078 18.7777 18.5602 18.7784 18.7129C18.7804 19.1545 18.9181 19.5847 19.173 19.9453C19.4279 20.306 19.7875 20.5794 20.2031 20.7287L20.2106 27.011ZM20.923 19.4328C20.7821 19.4328 20.6444 19.391 20.5272 19.3128C20.4101 19.2345 20.3188 19.1232 20.2649 18.9931C20.2109 18.8629 20.1968 18.7197 20.2243 18.5815C20.2518 18.4433 20.3197 18.3164 20.4193 18.2168C20.5189 18.1171 20.6458 18.0493 20.784 18.0218C20.9222 17.9943 21.0654 18.0084 21.1956 18.0623C21.3258 18.1163 21.437 18.2076 21.5153 18.3247C21.5936 18.4419 21.6353 18.5796 21.6353 18.7205C21.6353 18.9094 21.5603 19.0906 21.4267 19.2242C21.2931 19.3578 21.1119 19.4328 20.923 19.4328ZM28.5012 24.2601V19.3192C28.5012 19.1302 28.4261 18.949 28.2925 18.8154C28.159 18.6819 27.9778 18.6068 27.7888 18.6068C27.5999 18.6068 27.4187 18.6819 27.2851 18.8154C27.1515 18.949 27.0765 19.1302 27.0765 19.3192V25.3817C25.4566 26.424 23.5835 27.0056 21.6581 27.0641V20.7287C22.0743 20.5804 22.4345 20.3071 22.6895 19.9463C22.9445 19.5855 23.0819 19.1547 23.0828 18.7129C23.0848 18.3291 22.9826 17.952 22.7872 17.6216L26.7506 14.0675C27.0734 14.2527 27.4394 14.3494 27.8116 14.3479C28.3777 14.3459 28.9202 14.1201 29.3205 13.7197C29.7208 13.3194 29.9466 12.777 29.9486 12.2108C29.9494 11.8905 29.8768 11.5742 29.7364 11.2863L30.3654 10.6648C31.7041 12.7867 32.2512 15.3129 31.9101 17.7985C31.5691 20.2841 30.3619 22.5697 28.5012 24.2526V24.2601Z" fill="black" fill-opacity="0.25"/>
<path d="M36.9811 4.0265C37.1148 3.89284 37.1899 3.71157 37.1899 3.52255C37.1899 3.33353 37.1148 3.15225 36.9811 3.0186C36.8475 2.88494 36.6662 2.80985 36.4772 2.80985C36.2882 2.80985 36.1069 2.88494 35.9732 3.0186L33.1845 5.7998C32.9723 5.56487 32.7601 5.32995 32.5327 5.11018C30.3053 2.90331 27.4755 1.40362 24.3987 0.799387C21.3219 0.19515 18.1352 0.513293 15.2386 1.71388C12.342 2.91446 9.86457 4.94397 8.11737 7.54765C6.37018 10.1513 5.43107 13.2131 5.41793 16.3486C5.4152 17.4044 5.51673 18.4578 5.72106 19.4936L1.015 22.7447C0.868052 22.8589 0.768297 23.0233 0.734754 23.2063C0.701211 23.3894 0.736225 23.5785 0.833121 23.7374C0.901374 23.8309 0.990137 23.9075 1.0926 23.9614C1.19507 24.0152 1.30851 24.0449 1.42422 24.0481C1.56851 24.0497 1.70945 24.0045 1.82586 23.9193L6.09239 20.9714C6.54674 22.4733 7.22367 23.8987 8.10061 25.2L6.89568 26.4125C6.82946 26.4787 6.77693 26.5572 6.74108 26.6437C6.70524 26.7302 6.68679 26.8228 6.68679 26.9165C6.68679 27.0101 6.70524 27.1027 6.74108 27.1892C6.77693 27.2757 6.82946 27.3542 6.89568 27.4204C7.03352 27.5495 7.21459 27.6225 7.40342 27.625C7.49615 27.6255 7.58806 27.6077 7.67389 27.5725C7.75972 27.5374 7.83777 27.4857 7.90358 27.4204L8.96453 26.3595C9.30895 26.79 9.6784 27.1999 10.0709 27.5871C10.465 27.9812 10.8742 28.3525 11.2986 28.7011L4.94051 35.0592C4.63099 35.3718 4.20999 35.5485 3.77013 35.5507C3.33028 35.5528 2.90759 35.3801 2.59505 35.0706C2.28252 34.7611 2.10574 34.3401 2.10361 33.9002C2.10148 33.4604 2.27417 33.0377 2.58368 32.7251L3.94018 31.3686C4.06375 31.2299 4.13203 31.0505 4.13203 30.8647C4.13203 30.6789 4.06375 30.4995 3.94018 30.3607C3.87402 30.2945 3.79547 30.242 3.709 30.2061C3.62252 30.1703 3.52984 30.1519 3.43623 30.1519C3.34263 30.1519 3.24994 30.1703 3.16347 30.2061C3.077 30.242 2.99844 30.2945 2.93228 30.3607L1.57578 31.7172C1.15065 32.1507 0.86288 32.6999 0.748546 33.2962C0.634213 33.8925 0.698396 34.5092 0.933055 35.0691C1.16771 35.6291 1.56241 36.1073 2.06768 36.4439C2.57296 36.7805 3.16634 36.9605 3.77346 36.9614C4.17293 36.9627 4.56871 36.885 4.93806 36.7328C5.30742 36.5807 5.64305 36.357 5.92567 36.0747L12.4353 29.565C15.5475 31.6325 19.2878 32.5391 23.0012 32.126C26.7145 31.7129 30.1642 30.0065 32.7458 27.3055C35.3274 24.6046 36.8765 21.0815 37.1215 17.3532C37.3666 13.625 36.2921 9.92941 34.0863 6.91379L36.9811 4.0265ZM35.7307 16.3486C35.7307 19.2114 34.8818 22.0099 33.2914 24.3902C31.7009 26.7705 29.4403 28.6257 26.7955 29.7212C24.1506 30.8167 21.2403 31.1034 18.4326 30.5449C15.6248 29.9864 13.0457 28.6078 11.0214 26.5836C8.99717 24.5593 7.61862 21.9802 7.06013 19.1725C6.50163 16.3647 6.78827 13.4544 7.8838 10.8096C8.97933 8.16471 10.8345 5.90412 13.2148 4.31366C15.5951 2.7232 18.3936 1.87429 21.2564 1.87429C25.094 1.8783 28.7733 3.40456 31.4869 6.11816C34.2005 8.83176 35.7267 12.511 35.7307 16.3486Z" fill="black" fill-opacity="0.25"/>
</svg>
