<svg width="41" height="40" viewBox="0 0 41 40" fill="none" xmlns="http://www.w3.org/2000/svg">
<path d="M20.5782 12.4082C20.1888 12.4353 19.8045 12.3078 19.5086 12.0533C19.2127 11.7988 19.0291 11.4379 18.9977 11.0488C19.092 10.7019 19.2978 10.3956 19.5834 10.1772C19.8691 9.95886 20.2186 9.84055 20.5782 9.84055C20.9377 9.84055 21.2873 9.95886 21.5729 10.1772C21.8585 10.3956 22.0643 10.7019 22.1586 11.0488C22.1586 11.253 22.2397 11.4488 22.3841 11.5931C22.5285 11.7375 22.7242 11.8186 22.9284 11.8186C23.1326 11.8186 23.3283 11.7375 23.4727 11.5931C23.6171 11.4488 23.6982 11.253 23.6982 11.0488C23.6809 10.3832 23.4394 9.74292 23.0129 9.23165C22.5863 8.72038 21.9997 8.36809 21.3479 8.23182V8.01891C21.3479 7.81476 21.2668 7.61896 21.1225 7.4746C20.9781 7.33025 20.7823 7.24915 20.5782 7.24915C20.374 7.24915 20.1782 7.33025 20.0339 7.4746C19.8895 7.61896 19.8084 7.81476 19.8084 8.01891V8.23182C19.1521 8.3632 18.5599 8.71339 18.1285 9.22511C17.6971 9.73683 17.4521 10.3798 17.4336 11.0488C17.4656 11.8461 17.8116 12.5983 18.3961 13.1414C18.9806 13.6845 19.7562 13.9743 20.5536 13.9477C20.9438 13.9228 21.3281 14.0522 21.6237 14.3081C21.9194 14.5639 22.1026 14.9256 22.1341 15.3153C22.0398 15.6623 21.8339 15.9685 21.5483 16.1869C21.2627 16.4053 20.9131 16.5236 20.5536 16.5236C20.1941 16.5236 19.8445 16.4053 19.5589 16.1869C19.2733 15.9685 19.0674 15.6623 18.9731 15.3153C18.9731 15.1111 18.892 14.9153 18.7477 14.771C18.6033 14.6266 18.4075 14.5455 18.2034 14.5455C17.9992 14.5455 17.8034 14.6266 17.6591 14.771C17.5147 14.9153 17.4336 15.1111 17.4336 15.3153C17.4509 15.9809 17.6923 16.6212 18.1189 17.1325C18.5454 17.6437 19.1321 17.996 19.7838 18.1323V18.3125C19.7838 18.5166 19.8649 18.7124 20.0093 18.8568C20.1537 19.0011 20.3494 19.0822 20.5536 19.0822C20.7578 19.0822 20.9535 19.0011 21.0979 18.8568C21.2423 18.7124 21.3234 18.5166 21.3234 18.3125V18.1323C21.9751 17.996 22.5618 17.6437 22.9883 17.1325C23.4149 16.6212 23.6563 15.9809 23.6736 15.3153C23.6437 14.5166 23.2986 13.7623 22.7139 13.2175C22.1292 12.6726 21.3524 12.3817 20.5536 12.4082H20.5782Z" fill="#ADB1AF"/>
<path d="M27.408 31.1936C27.4059 30.5804 27.1608 29.9931 26.7264 29.5602C26.292 29.1274 25.7038 28.8843 25.0906 28.8843H21.3482V25.0273C21.3482 24.8232 21.2671 24.6274 21.1227 24.483C20.9784 24.3387 20.7826 24.2576 20.5784 24.2576C20.3743 24.2576 20.1785 24.3387 20.0341 24.483C19.8898 24.6274 19.8087 24.8232 19.8087 25.0273V28.8843H16.0499C15.6043 28.8846 15.1682 29.0139 14.7944 29.2565C14.4205 29.4991 14.1249 29.8447 13.9431 30.2516C13.7613 30.6585 13.7011 31.1093 13.7698 31.5496C13.8385 31.9899 14.0331 32.401 14.3302 32.7332C14.0342 33.0663 13.8404 33.4777 13.7722 33.9182C13.704 34.3586 13.7643 34.8094 13.9458 35.2165C14.1273 35.6235 14.4223 35.9696 14.7955 36.2133C15.1687 36.4569 15.6042 36.5878 16.0499 36.5902H17.1145V36.7376C17.1134 37.1222 17.1882 37.5032 17.3347 37.8589C17.4811 38.2145 17.6963 38.5377 17.9679 38.8101C18.2394 39.0824 18.5621 39.2985 18.9173 39.4459C19.2725 39.5934 19.6534 39.6692 20.038 39.6692H21.1189C21.8964 39.6692 22.6421 39.3604 23.1919 38.8106C23.7417 38.2608 24.0506 37.5151 24.0506 36.7376V36.5902H25.0906C25.5378 36.5913 25.9757 36.4625 26.3512 36.2195C26.7266 35.9765 27.0234 35.6297 27.2055 35.2213C27.3876 34.8128 27.4472 34.3603 27.3771 33.9186C27.3069 33.4769 27.11 33.0651 26.8103 32.7332C27.1932 32.3116 27.4061 31.7631 27.408 31.1936ZM22.511 36.7376C22.511 36.9204 22.475 37.1014 22.4051 37.2703C22.3351 37.4392 22.2326 37.5927 22.1033 37.722C21.974 37.8512 21.8206 37.9538 21.6517 38.0237C21.4828 38.0937 21.3017 38.1297 21.1189 38.1297H20.038C19.6702 38.1275 19.3182 37.9799 19.0589 37.7191C18.7996 37.4582 18.654 37.1054 18.654 36.7376V36.5902H22.511V36.7376ZM25.0906 35.0506H16.0827C15.8912 35.0309 15.7138 34.9409 15.5848 34.7979C15.4558 34.655 15.3844 34.4693 15.3844 34.2768C15.3844 34.0843 15.4558 33.8986 15.5848 33.7556C15.7138 33.6127 15.8912 33.5227 16.0827 33.5029H25.0906C25.2821 33.5227 25.4595 33.6127 25.5884 33.7556C25.7174 33.8986 25.7888 34.0843 25.7888 34.2768C25.7888 34.4693 25.7174 34.655 25.5884 34.7979C25.4595 34.9409 25.2821 35.0309 25.0906 35.0506ZM25.0906 31.9634H16.0827C15.8785 31.9634 15.6827 31.8823 15.5384 31.7379C15.394 31.5936 15.3129 31.3978 15.3129 31.1936C15.3129 30.9895 15.394 30.7937 15.5384 30.6493C15.6827 30.505 15.8785 30.4239 16.0827 30.4239H25.0906C25.2947 30.4239 25.4905 30.505 25.6349 30.6493C25.7792 30.7937 25.8603 30.9895 25.8603 31.1936C25.8603 31.3978 25.7792 31.5936 25.6349 31.7379C25.4905 31.8823 25.2947 31.9634 25.0906 31.9634Z" fill="#ADB1AF"/>
<path d="M20.5783 0.223145C17.1373 0.225315 13.838 1.59376 11.4057 4.02766C8.97329 6.46156 7.60693 9.76172 7.60693 13.2027C7.61922 15.0325 8.01132 16.8398 8.75842 18.5102C9.50552 20.1806 10.5913 21.6777 11.9471 22.9066C12.593 23.4995 13.1075 24.2212 13.4573 25.0252C13.8071 25.8292 13.9845 26.6976 13.978 27.5744C13.9758 27.675 13.9936 27.7752 14.0304 27.8689C14.0672 27.9627 14.1222 28.0482 14.1923 28.1206C14.2623 28.1929 14.3461 28.2507 14.4386 28.2904C14.5311 28.3302 14.6306 28.3512 14.7314 28.3523C14.9341 28.3523 15.1287 28.2723 15.2728 28.1297C15.4169 27.9872 15.499 27.7935 15.5011 27.5907C15.5098 26.4973 15.2891 25.4141 14.8533 24.4112C14.4174 23.4083 13.7761 22.508 12.9707 21.7684C11.7783 20.6814 10.8243 19.359 10.1689 17.8847C9.51346 16.4104 9.1709 14.8161 9.16284 13.2027C9.16297 11.5518 9.5217 9.92062 10.2142 8.422C10.9067 6.92337 11.9165 5.59304 13.1737 4.52302C14.4308 3.453 15.9054 2.66882 17.4955 2.22472C19.0855 1.78062 20.753 1.68719 22.3827 1.9509C24.0124 2.21461 25.5654 2.82915 26.9343 3.75204C28.3031 4.67493 29.4551 5.88414 30.3107 7.29603C31.1663 8.70792 31.705 10.2888 31.8895 11.9294C32.0741 13.5699 31.9001 15.231 31.3796 16.7976C31.3478 16.8939 31.3354 16.9955 31.3429 17.0965C31.3504 17.1976 31.3778 17.2962 31.4234 17.3867C31.469 17.4771 31.532 17.5578 31.6088 17.6239C31.6856 17.69 31.7746 17.7404 31.8709 17.7721C31.9671 17.8039 32.0687 17.8163 32.1698 17.8088C32.2708 17.8013 32.3694 17.7739 32.4599 17.7283C32.5504 17.6827 32.631 17.6197 32.6971 17.5429C32.7633 17.4661 32.8137 17.377 32.8454 17.2808C33.4936 15.3336 33.6702 13.2603 33.3608 11.2316C33.0513 9.20277 32.2646 7.27644 31.0653 5.61106C29.8661 3.94568 28.2885 2.58883 26.4625 1.65214C24.6365 0.71545 22.6142 0.225687 20.5619 0.223145H20.5783Z" fill="#ADB1AF"/>
<path d="M31.3552 18.9431C31.1767 18.8474 30.9692 18.8213 30.7726 18.8697C30.576 18.9181 30.4043 19.0376 30.2906 19.2051C30.1838 19.378 30.1498 19.5861 30.1958 19.7839C30.2418 19.9818 30.3642 20.1535 30.5363 20.2615C30.6591 20.3378 30.8011 20.3776 30.9457 20.3762C31.0764 20.3715 31.2041 20.3356 31.3181 20.2715C31.432 20.2074 31.529 20.1169 31.6008 20.0077C31.6561 19.9221 31.6936 19.8263 31.7111 19.7259C31.7287 19.6256 31.7259 19.5227 31.703 19.4235C31.6801 19.3242 31.6375 19.2305 31.5778 19.148C31.518 19.0655 31.4423 18.9958 31.3552 18.9431Z" fill="#ADB1AF"/>
<path d="M29.9382 21.0723C29.7832 20.9442 29.5866 20.8777 29.3858 20.8852C29.1849 20.8928 28.9939 20.9739 28.849 21.1132C28.6361 21.3425 28.415 21.5636 28.1939 21.7765C27.3883 22.5148 26.744 23.4116 26.3015 24.4108C25.859 25.4099 25.6278 26.4898 25.6226 27.5825C25.6226 27.7867 25.7037 27.9824 25.848 28.1268C25.9924 28.2712 26.1882 28.3523 26.3923 28.3523C26.5965 28.3523 26.7923 28.2712 26.9366 28.1268C27.081 27.9824 27.1621 27.7867 27.1621 27.5825C27.1641 26.7035 27.3477 25.8345 27.7014 25.0298C28.0551 24.2252 28.5713 23.5023 29.2175 22.9066C29.4714 22.6691 29.7171 22.4152 29.9545 22.1614C30.0881 22.0114 30.1618 21.8176 30.1618 21.6168C30.1618 21.416 30.0881 21.2222 29.9545 21.0723H29.9382Z" fill="#ADB1AF"/>
<path d="M27.3914 6.27465C25.9721 4.87687 24.1575 3.94894 22.1934 3.61645C20.2292 3.28397 18.2104 3.56299 16.41 4.41575C16.2255 4.50272 16.0831 4.65938 16.014 4.85131C15.9449 5.04324 15.9548 5.25474 16.0415 5.43937C16.1376 5.6174 16.2962 5.75355 16.4867 5.8216C16.6772 5.88964 16.8862 5.88475 17.0733 5.80787C18.5881 5.09243 20.2859 4.8588 21.9377 5.13848C23.5894 5.41817 25.1157 6.19771 26.3105 7.37197C27.4301 8.51353 28.191 9.95788 28.4993 11.5268C28.8076 13.0957 28.6499 14.7206 28.0456 16.2009C27.4412 17.6813 26.4168 18.9523 25.0985 19.8572C23.7803 20.7621 22.226 21.2613 20.6273 21.2932H20.5782C19.1976 21.2893 17.8404 20.9364 16.6327 20.2673C15.4251 19.5982 14.4062 18.6347 13.6708 17.4662C12.9354 16.2977 12.5073 14.9623 12.4264 13.5841C12.3456 12.2058 12.6145 10.8295 13.2081 9.583C13.2875 9.40083 13.2933 9.19502 13.2244 9.00864C13.1555 8.82226 13.0172 8.66974 12.8385 8.583C12.6597 8.49625 12.4543 8.482 12.2652 8.54323C12.0762 8.60446 11.9182 8.73642 11.8242 8.9115C11.1087 10.3892 10.7801 12.0244 10.8693 13.6638C10.9585 15.3032 11.4626 16.8931 12.3342 18.2844C13.2058 19.6758 14.4165 20.823 15.8527 21.6185C17.2889 22.4141 18.9036 22.8319 20.5455 22.8328H20.6028C22.516 22.8208 24.3829 22.2431 25.9685 21.1723C27.5541 20.1015 28.7874 18.5855 29.5132 16.8152C30.239 15.045 30.4248 13.0996 30.0472 11.2239C29.6697 9.34825 28.7456 7.62623 27.3914 6.27465Z" fill="#ADB1AF"/>
<path d="M14.789 6.34022C14.7175 6.26867 14.6326 6.2119 14.5392 6.17317C14.4457 6.13444 14.3456 6.1145 14.2444 6.1145C14.1433 6.1145 14.0431 6.13444 13.9497 6.17317C13.8562 6.2119 13.7713 6.26867 13.6998 6.34022L14.2403 6.88888L13.6998 6.34022C13.6283 6.41171 13.5715 6.4966 13.5328 6.59004C13.4941 6.68348 13.4741 6.78364 13.4741 6.88479C13.4741 6.98594 13.4941 7.0861 13.5328 7.17954C13.5715 7.27298 13.6283 7.35787 13.6998 7.42936C13.7694 7.50257 13.8533 7.5607 13.9463 7.60014C14.0392 7.63959 14.1393 7.6595 14.2403 7.65865C14.3425 7.65965 14.4439 7.63984 14.5382 7.60043C14.6326 7.56101 14.7179 7.5028 14.789 7.42936C14.8605 7.35787 14.9173 7.27298 14.956 7.17954C14.9948 7.0861 15.0147 6.98594 15.0147 6.88479C15.0147 6.78364 14.9948 6.68348 14.956 6.59004C14.9173 6.4966 14.8605 6.41171 14.789 6.34022Z" fill="#ADB1AF"/>
<path d="M39.5438 12.4082H36.4075C36.2033 12.4082 36.0075 12.4893 35.8632 12.6337C35.7188 12.778 35.6377 12.9738 35.6377 13.178C35.6377 13.3821 35.7188 13.5779 35.8632 13.7223C36.0075 13.8666 36.2033 13.9477 36.4075 13.9477H39.5438C39.6449 13.9477 39.745 13.9278 39.8384 13.8891C39.9318 13.8505 40.0167 13.7938 40.0881 13.7223C40.1596 13.6508 40.2163 13.5659 40.255 13.4725C40.2937 13.3792 40.3136 13.2791 40.3136 13.178C40.3136 13.0769 40.2937 12.9768 40.255 12.8834C40.2163 12.79 40.1596 12.7051 40.0881 12.6337C40.0167 12.5622 39.9318 12.5055 39.8384 12.4668C39.745 12.4281 39.6449 12.4082 39.5438 12.4082Z" fill="#ADB1AF"/>
<path d="M36.9973 8.07631C36.9258 8.00475 36.8409 7.94798 36.7474 7.90925C36.654 7.87052 36.5538 7.85059 36.4527 7.85059C36.3515 7.85059 36.2514 7.87052 36.1579 7.90925C36.0645 7.94798 35.9796 8.00475 35.9081 8.07631L34.819 9.16544C34.7474 9.23693 34.6907 9.32182 34.6519 9.41526C34.6132 9.5087 34.5933 9.60886 34.5933 9.71001C34.5933 9.81116 34.6132 9.91131 34.6519 10.0048C34.6907 10.0982 34.7474 10.1831 34.819 10.2546C34.8899 10.3271 34.9746 10.3848 35.0681 10.4241C35.1617 10.4635 35.2621 10.4838 35.3636 10.4838C35.465 10.4838 35.5654 10.4635 35.659 10.4241C35.7525 10.3848 35.8372 10.3271 35.9081 10.2546L36.9973 9.16544C37.0688 9.09395 37.1256 9.00906 37.1643 8.91562C37.203 8.82218 37.223 8.72202 37.223 8.62087C37.223 8.51972 37.203 8.41957 37.1643 8.32613C37.1256 8.23269 37.0688 8.14779 36.9973 8.07631Z" fill="#ADB1AF"/>
<path d="M36.9972 17.2399L35.9163 16.1507C35.8448 16.0792 35.7599 16.0225 35.6664 15.9838C35.573 15.9451 35.4728 15.9252 35.3717 15.9252C35.2706 15.9252 35.1704 15.9451 35.077 15.9838C34.9835 16.0225 34.8986 16.0792 34.8271 16.1507C34.7556 16.2223 34.6989 16.3072 34.6602 16.4006C34.6215 16.494 34.6016 16.5942 34.6016 16.6953C34.6016 16.7964 34.6215 16.8966 34.6602 16.99C34.6989 17.0835 34.7556 17.1684 34.8271 17.2399L35.9081 18.329C36.057 18.4685 36.2527 18.5473 36.4567 18.5501C36.6079 18.5486 36.7552 18.5027 36.8804 18.418C37.0056 18.3333 37.1031 18.2136 37.1607 18.0739C37.2184 17.9342 37.2336 17.7806 37.2045 17.6323C37.1754 17.484 37.1033 17.3475 36.9972 17.2399Z" fill="#ADB1AF"/>
<path d="M4.74914 12.4082H1.62914C1.42499 12.4082 1.22919 12.4893 1.08483 12.6337C0.940475 12.778 0.859375 12.9738 0.859375 13.178C0.859375 13.3821 0.940475 13.5779 1.08483 13.7223C1.22919 13.8666 1.42499 13.9477 1.62914 13.9477H4.74914C4.85023 13.9477 4.95033 13.9278 5.04372 13.8891C5.13711 13.8505 5.22197 13.7938 5.29345 13.7223C5.36493 13.6508 5.42163 13.5659 5.46031 13.4725C5.499 13.3792 5.51891 13.2791 5.51891 13.178C5.51891 13.0769 5.499 12.9768 5.46031 12.8834C5.42163 12.79 5.36493 12.7051 5.29345 12.6337C5.22197 12.5622 5.13711 12.5055 5.04372 12.4668C4.95033 12.4281 4.85023 12.4082 4.74914 12.4082Z" fill="#ADB1AF"/>
<path d="M6.33762 9.1245L5.24029 8.07631C5.1688 8.00475 5.08391 7.94798 4.99047 7.90925C4.89703 7.87052 4.79687 7.85059 4.69572 7.85059C4.59457 7.85059 4.49442 7.87052 4.40098 7.90925C4.30754 7.94798 4.22265 8.00475 4.15116 8.07631C4.01763 8.22627 3.94385 8.42007 3.94385 8.62087C3.94385 8.82167 4.01763 9.01547 4.15116 9.16544L5.24848 10.2546C5.31805 10.3278 5.40193 10.3859 5.4949 10.4254C5.58787 10.4648 5.68796 10.4847 5.78895 10.4839C5.94074 10.4818 6.0886 10.4353 6.2143 10.3502C6.34 10.2651 6.43805 10.145 6.49638 10.0049C6.5547 9.86473 6.57075 9.71058 6.54254 9.56142C6.51433 9.41226 6.44309 9.27461 6.33762 9.16544V9.1245Z" fill="#ADB1AF"/>
<path d="M6.32976 16.1506C6.25827 16.0791 6.17338 16.0223 6.07994 15.9836C5.9865 15.9449 5.88634 15.9249 5.78519 15.9249C5.68404 15.9249 5.58389 15.9449 5.49045 15.9836C5.39701 16.0223 5.31211 16.0791 5.24063 16.1506L4.15968 17.2398C4.05355 17.3474 3.98145 17.4839 3.95237 17.6322C3.92329 17.7805 3.93852 17.9341 3.99615 18.0738C4.05379 18.2135 4.15128 18.3332 4.27647 18.4179C4.40167 18.5026 4.54902 18.5485 4.70015 18.55C4.9042 18.5473 5.09986 18.4684 5.24881 18.3289L6.32976 17.2398C6.40132 17.1683 6.45808 17.0834 6.49681 16.99C6.53554 16.8965 6.55548 16.7964 6.55548 16.6952C6.55548 16.5941 6.53554 16.4939 6.49681 16.4005C6.45808 16.307 6.40132 16.2221 6.32976 16.1506Z" fill="#ADB1AF"/>
</svg>
