<svg width="38" height="38" viewBox="0 0 38 38" fill="none" xmlns="http://www.w3.org/2000/svg">
<path d="M37.1211 6.7883L30.5479 0.215014C30.4094 0.0814072 30.2257 0.00467238 30.0334 0H10.5976C10.4062 0 10.2226 0.0760503 10.0872 0.21142C9.95185 0.34679 9.8758 0.530391 9.8758 0.721833V3.90097H4.9612C4.76976 3.90097 4.58616 3.97702 4.45079 4.11239C4.31542 4.24776 4.23937 4.43136 4.23937 4.6228C4.23937 4.81424 4.31542 4.99784 4.45079 5.13321C4.58616 5.26858 4.76976 5.34463 4.9612 5.34463H19.0907C19.2821 5.34463 19.4657 5.26858 19.6011 5.13321C19.7365 4.99784 19.8125 4.81424 19.8125 4.6228C19.8125 4.43136 19.7365 4.24776 19.6011 4.11239C19.4657 3.97702 19.2821 3.90097 19.0907 3.90097H11.3271V1.44366H29.3115V7.29511C29.3115 7.48656 29.3876 7.67016 29.5229 7.80553C29.6583 7.9409 29.8419 8.01695 30.0334 8.01695H35.8541V35.5464H16.2341V33.5191H17.6777C17.8692 33.5191 18.0528 33.4431 18.1881 33.3077C18.3235 33.1723 18.3996 32.9887 18.3996 32.7973V29.334C18.3996 29.1426 18.3235 28.959 18.1881 28.8236C18.0528 28.6883 17.8692 28.6122 17.6777 28.6122H16.2341V25.8631C16.2341 25.6717 16.158 25.4881 16.0227 25.3527C15.8873 25.2173 15.7037 25.1413 15.5122 25.1413H10.9048C11.9551 24.2965 12.7173 23.1466 13.0864 21.8502C13.4554 20.5538 13.4131 19.1749 12.9653 17.9036C12.5174 16.6323 11.6861 15.5313 10.586 14.7524C9.48592 13.9736 8.17125 13.5554 6.82337 13.5554C5.47549 13.5554 4.16083 13.9736 3.06073 14.7524C1.96064 15.5313 1.12933 16.6323 0.681478 17.9036C0.233631 19.1749 0.191318 20.5538 0.560375 21.8502C0.929433 23.1466 1.69167 24.2965 2.74195 25.1413H1.06791C0.878692 25.1504 0.699529 25.2292 0.564866 25.3624C0.430204 25.4957 0.349547 25.674 0.338401 25.8631V29.334C0.349547 29.5232 0.430204 29.7015 0.564866 29.8347C0.699529 29.968 0.878692 30.0467 1.06791 30.0559H2.51158V32.0755H1.06791C0.878692 32.0846 0.699529 32.1634 0.564866 32.2966C0.430204 32.4299 0.349547 32.6082 0.338401 32.7973V36.2682C0.349547 36.4574 0.430204 36.6357 0.564866 36.7689C0.699529 36.9022 0.878692 36.9809 1.06791 36.9901H36.622C36.8134 36.9901 36.997 36.914 37.1324 36.7786C37.2678 36.6433 37.3438 36.4597 37.3438 36.2682V7.29511C37.344 7.1055 37.2695 6.92345 37.1365 6.7883H37.1211ZM30.7552 6.59632V2.46498L34.8635 6.59632H30.7552ZM1.78974 20.0808C1.78975 19.0796 2.08673 18.1009 2.64313 17.2685C3.19953 16.4361 3.99032 15.7875 4.91546 15.4047C5.84059 15.0219 6.85848 14.9222 7.84033 15.1181C8.82218 15.3139 9.72387 15.7967 10.4313 16.5052C11.1387 17.2137 11.6201 18.1161 11.8145 19.0982C12.0088 20.0804 11.9075 21.0981 11.5233 22.0227C11.1391 22.9472 10.4893 23.737 9.65613 24.2922C8.82292 24.8473 7.84377 25.1428 6.84257 25.1413C5.50177 25.1392 4.21659 24.6052 3.26922 23.6564C2.32185 22.7076 1.78974 21.4216 1.78974 20.0808ZM1.78974 28.6122V26.5619H14.7904V28.5892H12.6249V27.9825C12.6249 27.7911 12.5489 27.6075 12.4135 27.4721C12.2781 27.3367 12.0945 27.2607 11.9031 27.2607C11.7116 27.2607 11.528 27.3367 11.3927 27.4721C11.2573 27.6075 11.1812 27.7911 11.1812 27.9825V28.5892H8.97735V27.9825C8.97735 27.7911 8.9013 27.6075 8.76593 27.4721C8.63056 27.3367 8.44696 27.2607 8.25552 27.2607C8.06408 27.2607 7.88048 27.3367 7.74511 27.4721C7.60974 27.6075 7.53369 27.7911 7.53369 27.9825V28.5892H5.39891V27.9825C5.39891 27.7911 5.32286 27.6075 5.18749 27.4721C5.05212 27.3367 4.86852 27.2607 4.67707 27.2607C4.48563 27.2607 4.30203 27.3367 4.16666 27.4721C4.03129 27.6075 3.95524 27.7911 3.95524 27.9825V28.5892L1.78974 28.6122ZM14.7904 35.5234H12.6249V35.1625C12.6249 34.971 12.5489 34.7874 12.4135 34.652C12.2781 34.5167 12.0945 34.4406 11.9031 34.4406C11.7116 34.4406 11.528 34.5167 11.3927 34.652C11.2573 34.7874 11.1812 34.971 11.1812 35.1625V35.5234H8.97735V35.1625C8.97735 34.971 8.9013 34.7874 8.76593 34.652C8.63056 34.5167 8.44696 34.4406 8.25552 34.4406C8.06408 34.4406 7.88048 34.5167 7.74511 34.652C7.60974 34.7874 7.53369 34.971 7.53369 35.1625V35.5234H5.39891V35.1625C5.39891 34.971 5.32286 34.7874 5.18749 34.652C5.05212 34.5167 4.86852 34.4406 4.67707 34.4406C4.48563 34.4406 4.30203 34.5167 4.16666 34.652C4.03129 34.7874 3.95524 34.971 3.95524 35.1625V35.5234H1.78974V33.5191H14.7904V35.5234ZM14.7904 32.0524V31.6224C14.7904 31.431 14.7144 31.2474 14.579 31.112C14.4436 30.9766 14.26 30.9006 14.0686 30.9006C13.8771 30.9006 13.6935 30.9766 13.5582 31.112C13.4228 31.2474 13.3467 31.431 13.3467 31.6224V32.0524H11.1812V31.6224C11.1812 31.431 11.1052 31.2474 10.9698 31.112C10.8345 30.9766 10.6509 30.9006 10.4594 30.9006C10.268 30.9006 10.0844 30.9766 9.949 31.112C9.81363 31.2474 9.73758 31.431 9.73758 31.6224V32.0524H7.5644V31.6224C7.5644 31.431 7.48835 31.2474 7.35298 31.112C7.21761 30.9766 7.03401 30.9006 6.84257 30.9006C6.65113 30.9006 6.46753 30.9766 6.33216 31.112C6.19679 31.2474 6.12074 31.431 6.12074 31.6224V32.0524H3.95524V30.0559H16.9559V32.0755L14.7904 32.0524Z" fill="black" fill-opacity="0.25"/>
<path d="M6.84251 19.3743C6.69456 19.3547 6.55552 19.2924 6.4424 19.1951C6.32928 19.0977 6.24699 18.9695 6.20559 18.8261C6.16418 18.6827 6.16547 18.5303 6.20928 18.3876C6.25309 18.245 6.33753 18.1182 6.45227 18.0227C6.56701 17.9273 6.70708 17.8673 6.85535 17.8502C7.00361 17.8331 7.15366 17.8596 7.28712 17.9264C7.42058 17.9932 7.53168 18.0975 7.60682 18.2264C7.68197 18.3554 7.71791 18.5034 7.71025 18.6525C7.71025 18.8439 7.7863 19.0275 7.92167 19.1629C8.05704 19.2983 8.24064 19.3743 8.43208 19.3743C8.62353 19.3743 8.80712 19.2983 8.94249 19.1629C9.07786 19.0275 9.15391 18.8439 9.15391 18.6525C9.1471 18.1819 8.98878 17.7261 8.70244 17.3526C8.41611 16.9791 8.01701 16.7079 7.56435 16.5791C7.56435 16.3877 7.4883 16.2041 7.35293 16.0687C7.21756 15.9334 7.03396 15.8573 6.84251 15.8573C6.65107 15.8573 6.46747 15.9334 6.3321 16.0687C6.19673 16.2041 6.12068 16.3877 6.12068 16.5791C5.6705 16.7071 5.2732 16.976 4.9871 17.3464C4.70101 17.7168 4.54119 18.1692 4.53112 18.6371C4.55315 19.2285 4.8073 19.7874 5.2385 20.1927C5.6697 20.598 6.24322 20.8172 6.83484 20.8026C6.98309 20.8223 7.12235 20.8849 7.23553 20.9827C7.34872 21.0805 7.43088 21.2091 7.47195 21.353C7.51302 21.4968 7.5112 21.6494 7.46672 21.7922C7.42224 21.935 7.33702 22.0617 7.22155 22.1567C7.10607 22.2518 6.96535 22.311 6.81667 22.3272C6.66799 22.3434 6.51782 22.3158 6.3846 22.2479C6.25138 22.1799 6.1409 22.0745 6.06673 21.9446C5.99257 21.8148 5.95794 21.666 5.9671 21.5168C5.9671 21.3253 5.89105 21.1417 5.75568 21.0064C5.62031 20.871 5.43671 20.7949 5.24527 20.7949C5.05383 20.7949 4.87023 20.871 4.73486 21.0064C4.59949 21.1417 4.52344 21.3253 4.52344 21.5168C4.53352 21.9847 4.69333 22.437 4.97942 22.8074C5.26552 23.1778 5.66282 23.4468 6.113 23.5748C6.113 23.7662 6.18905 23.9498 6.32442 24.0852C6.45979 24.2205 6.64339 24.2966 6.83484 24.2966C7.02628 24.2966 7.20988 24.2205 7.34525 24.0852C7.48062 23.9498 7.55667 23.7662 7.55667 23.5748C8.00685 23.4468 8.40415 23.1778 8.69025 22.8074C8.97634 22.437 9.13616 21.9847 9.14624 21.5168C9.1242 20.9261 8.8698 20.3679 8.43837 19.9638C8.00695 19.5597 7.4334 19.3423 6.84251 19.359V19.3743Z" fill="black" fill-opacity="0.25"/>
<path d="M16.4029 7.08008H4.96109C4.8663 7.08008 4.77243 7.09875 4.68486 7.13503C4.59728 7.1713 4.51771 7.22447 4.45068 7.2915C4.38365 7.35853 4.33048 7.4381 4.2942 7.52568C4.25793 7.61325 4.23926 7.70712 4.23926 7.80191C4.23926 7.8967 4.25793 7.99057 4.2942 8.07814C4.33048 8.16572 4.38365 8.2453 4.45068 8.31232C4.51771 8.37935 4.59728 8.43252 4.68486 8.4688C4.77243 8.50507 4.8663 8.52374 4.96109 8.52374H16.4029C16.4977 8.52374 16.5916 8.50507 16.6791 8.4688C16.7667 8.43252 16.8463 8.37935 16.9133 8.31232C16.9803 8.2453 17.0335 8.16572 17.0698 8.07814C17.1061 7.99057 17.1247 7.8967 17.1247 7.80191C17.1247 7.70712 17.1061 7.61325 17.0698 7.52568C17.0335 7.4381 16.9803 7.35853 16.9133 7.2915C16.8463 7.22447 16.7667 7.1713 16.6791 7.13503C16.5916 7.09875 16.4977 7.08008 16.4029 7.08008Z" fill="black" fill-opacity="0.25"/>
<path d="M22.2158 7.08008H19.8737C19.6822 7.08008 19.4986 7.15613 19.3633 7.2915C19.2279 7.42687 19.1519 7.61047 19.1519 7.80191C19.1519 7.99335 19.2279 8.17695 19.3633 8.31232C19.4986 8.44769 19.6822 8.52374 19.8737 8.52374H22.2158C22.3106 8.52374 22.4045 8.50507 22.492 8.4688C22.5796 8.43252 22.6592 8.37935 22.7262 8.31232C22.7932 8.2453 22.8464 8.16572 22.8827 8.07814C22.919 7.99057 22.9376 7.8967 22.9376 7.80191C22.9376 7.70712 22.919 7.61325 22.8827 7.52568C22.8464 7.4381 22.7932 7.35853 22.7262 7.2915C22.6592 7.22447 22.5796 7.1713 22.492 7.13503C22.4045 7.09875 22.3106 7.08008 22.2158 7.08008Z" fill="black" fill-opacity="0.25"/>
<path d="M22.5692 4.1159C22.5036 4.04761 22.4249 3.99334 22.3378 3.95638C22.2507 3.91942 22.157 3.90054 22.0623 3.90088C21.8709 3.90088 21.6873 3.97693 21.5519 4.1123C21.4166 4.24767 21.3405 4.43127 21.3405 4.62272C21.3384 4.71808 21.3556 4.81289 21.3912 4.90141C21.4267 4.98994 21.4798 5.07035 21.5473 5.1378C21.6147 5.20525 21.6951 5.25834 21.7836 5.29387C21.8722 5.32941 21.967 5.34664 22.0623 5.34455C22.2538 5.34455 22.4374 5.2685 22.5727 5.13313C22.7081 4.99776 22.7842 4.81416 22.7842 4.62272C22.7845 4.52808 22.7656 4.43436 22.7287 4.34724C22.6917 4.26012 22.6374 4.18141 22.5692 4.1159Z" fill="black" fill-opacity="0.25"/>
<path d="M13.147 10.2593H4.96109C4.76965 10.2593 4.58605 10.3353 4.45068 10.4707C4.31531 10.6061 4.23926 10.7897 4.23926 10.9811C4.23926 11.1726 4.31531 11.3562 4.45068 11.4915C4.58605 11.6269 4.76965 11.7029 4.96109 11.7029H13.147C13.3384 11.7029 13.522 11.6269 13.6574 11.4915C13.7928 11.3562 13.8688 11.1726 13.8688 10.9811C13.8688 10.7897 13.7928 10.6061 13.6574 10.4707C13.522 10.3353 13.3384 10.2593 13.147 10.2593Z" fill="black" fill-opacity="0.25"/>
<path d="M16.9175 10.4743C16.779 10.3407 16.5954 10.2639 16.403 10.2593C16.3084 10.2594 16.2148 10.2785 16.1278 10.3154C16.0407 10.3523 15.962 10.4064 15.8962 10.4743C15.8279 10.5398 15.7736 10.6185 15.7367 10.7056C15.6997 10.7928 15.6808 10.8865 15.6812 10.9811C15.6858 11.1735 15.7626 11.3571 15.8962 11.4956C16.0339 11.6247 16.2143 11.6985 16.403 11.7029C16.4984 11.705 16.5932 11.6878 16.6817 11.6523C16.7702 11.6167 16.8506 11.5636 16.9181 11.4962C16.9855 11.4287 17.0386 11.3483 17.0741 11.2598C17.1097 11.1713 17.1269 11.0765 17.1248 10.9811C17.125 10.7915 17.0505 10.6094 16.9175 10.4743Z" fill="black" fill-opacity="0.25"/>
<path d="M20.3882 10.4743C20.2497 10.3407 20.0661 10.2639 19.8737 10.2593C19.6858 10.2702 19.5085 10.3498 19.3755 10.4829C19.2424 10.616 19.1628 10.7932 19.1519 10.9811C19.1519 11.1726 19.2279 11.3562 19.3633 11.4915C19.4986 11.6269 19.6822 11.7029 19.8737 11.7029C19.9691 11.705 20.0639 11.6878 20.1524 11.6523C20.2409 11.6167 20.3213 11.5636 20.3888 11.4962C20.4562 11.4287 20.5093 11.3483 20.5448 11.2598C20.5804 11.1713 20.5976 11.0765 20.5955 10.9811C20.5957 10.7915 20.5212 10.6094 20.3882 10.4743Z" fill="black" fill-opacity="0.25"/>
<path d="M23.8514 10.4743C23.7856 10.4064 23.7068 10.3523 23.6198 10.3154C23.5327 10.2785 23.4391 10.2594 23.3446 10.2593C23.2498 10.2593 23.1559 10.2779 23.0683 10.3142C22.9808 10.3505 22.9012 10.4037 22.8341 10.4707C22.7671 10.5377 22.714 10.6173 22.6777 10.7049C22.6414 10.7925 22.6227 10.8863 22.6227 10.9811C22.6206 11.0765 22.6379 11.1713 22.6734 11.2598C22.7089 11.3483 22.762 11.4287 22.8295 11.4962C22.8969 11.5636 22.9773 11.6167 23.0659 11.6523C23.1544 11.6878 23.2492 11.705 23.3446 11.7029C23.5332 11.6985 23.7137 11.6247 23.8514 11.4956C23.985 11.3571 24.0617 11.1735 24.0664 10.9811C24.0667 10.8865 24.0479 10.7928 24.0109 10.7056C23.9739 10.6185 23.9197 10.5398 23.8514 10.4743Z" fill="black" fill-opacity="0.25"/>
<path d="M33.5501 31.6454H20.2116C20.0201 31.6454 19.8365 31.7214 19.7012 31.8568C19.5658 31.9922 19.4897 32.1758 19.4897 32.3672C19.4897 32.5587 19.5658 32.7423 19.7012 32.8776C19.8365 33.013 20.0201 33.0891 20.2116 33.0891H33.5501C33.7416 33.0891 33.9252 33.013 34.0605 32.8776C34.1959 32.7423 34.272 32.5587 34.272 32.3672C34.272 32.1758 34.1959 31.9922 34.0605 31.8568C33.9252 31.7214 33.7416 31.6454 33.5501 31.6454Z" fill="black" fill-opacity="0.25"/>
<path d="M33.2202 17.9921C33.0805 17.8613 32.8971 17.7874 32.7057 17.7848C32.517 17.7893 32.3366 17.8631 32.1989 17.9921C32.0653 18.1306 31.9886 18.3142 31.9839 18.5066C31.9835 18.6013 32.0024 18.695 32.0394 18.7821C32.0763 18.8692 32.1306 18.9479 32.1989 19.0134C32.2647 19.0814 32.3435 19.1354 32.4305 19.1723C32.5176 19.2093 32.6112 19.2284 32.7057 19.2285C32.8972 19.2285 33.0808 19.1524 33.2161 19.017C33.3515 18.8817 33.4276 18.6981 33.4276 18.5066C33.425 18.3153 33.351 18.1318 33.2202 17.9921Z" fill="black" fill-opacity="0.25"/>
<path d="M32.7057 20.8103C32.5179 20.8213 32.3406 20.9008 32.2075 21.0339C32.0744 21.167 31.9949 21.3443 31.9839 21.5321V29.3341C31.9839 29.5255 32.0599 29.7091 32.1953 29.8445C32.3307 29.9799 32.5143 30.0559 32.7057 30.0559C32.8972 30.0559 33.0808 29.9799 33.2161 29.8445C33.3515 29.7091 33.4276 29.5255 33.4276 29.3341V21.5321C33.4166 21.3443 33.337 21.167 33.2039 21.0339C33.0709 20.9008 32.8936 20.8213 32.7057 20.8103Z" fill="black" fill-opacity="0.25"/>
<path d="M29.8185 20.8103C29.6306 20.8213 29.4534 20.9008 29.3203 21.0339C29.1872 21.167 29.1077 21.3443 29.0967 21.5321V29.3341C29.0967 29.5255 29.1727 29.7091 29.3081 29.8445C29.4435 29.9799 29.6271 30.0559 29.8185 30.0559C30.01 30.0559 30.1936 29.9799 30.3289 29.8445C30.4643 29.7091 30.5403 29.5255 30.5403 29.3341V21.5321C30.5294 21.3443 30.4498 21.167 30.3167 21.0339C30.1837 20.9008 30.0064 20.8213 29.8185 20.8103Z" fill="black" fill-opacity="0.25"/>
<path d="M26.9308 23.7207C26.7394 23.7207 26.5558 23.7968 26.4204 23.9321C26.285 24.0675 26.209 24.2511 26.209 24.4425V29.3341C26.209 29.5255 26.285 29.7091 26.4204 29.8445C26.5558 29.9799 26.7394 30.0559 26.9308 30.0559C27.1223 30.0559 27.3059 29.9799 27.4412 29.8445C27.5766 29.7091 27.6526 29.5255 27.6526 29.3341V24.4425C27.6526 24.2511 27.5766 24.0675 27.4412 23.9321C27.3059 23.7968 27.1223 23.7207 26.9308 23.7207Z" fill="black" fill-opacity="0.25"/>
<path d="M24.0358 21.1865C23.8444 21.1865 23.6608 21.2625 23.5254 21.3979C23.39 21.5333 23.314 21.7169 23.314 21.9083V29.3494C23.314 29.5408 23.39 29.7244 23.5254 29.8598C23.6608 29.9951 23.8444 30.0712 24.0358 30.0712C24.2272 30.0712 24.4108 29.9951 24.5462 29.8598C24.6816 29.7244 24.7576 29.5408 24.7576 29.3494V21.893C24.7576 21.7015 24.6816 21.5179 24.5462 21.3826C24.4108 21.2472 24.2272 21.1711 24.0358 21.1711V21.1865Z" fill="black" fill-opacity="0.25"/>
<path d="M21.1486 23.1217C20.9571 23.1217 20.7735 23.1978 20.6382 23.3331C20.5028 23.4685 20.4268 23.6521 20.4268 23.8435V29.3341C20.4268 29.5255 20.5028 29.7091 20.6382 29.8445C20.7735 29.9799 20.9571 30.0559 21.1486 30.0559C21.34 30.0559 21.5236 29.9799 21.659 29.8445C21.7944 29.7091 21.8704 29.5255 21.8704 29.3341V23.8435C21.8704 23.6521 21.7944 23.4685 21.659 23.3331C21.5236 23.1978 21.34 23.1217 21.1486 23.1217Z" fill="black" fill-opacity="0.25"/>
<path d="M33.0206 11.5186H30.8551C30.7603 11.5186 30.6664 11.5372 30.5788 11.5735C30.4913 11.6098 30.4117 11.6629 30.3447 11.73C30.2776 11.797 30.2245 11.8766 30.1882 11.9642C30.1519 12.0517 30.1332 12.1456 30.1332 12.2404C30.1332 12.3352 30.1519 12.429 30.1882 12.5166C30.2245 12.6042 30.2776 12.6838 30.3447 12.7508C30.4117 12.8178 30.4913 12.871 30.5788 12.9073C30.6664 12.9435 30.7603 12.9622 30.8551 12.9622H31.2467L26.3167 17.8922L24.1896 15.7344C24.05 15.6036 23.8665 15.5296 23.6751 15.527C23.4855 15.5269 23.3035 15.6014 23.1683 15.7344L18.7452 20.1575C18.62 20.2981 18.5508 20.4799 18.5508 20.6682C18.5508 20.8565 18.62 21.0382 18.7452 21.1788C18.8837 21.3124 19.0673 21.3892 19.2597 21.3938C19.4504 21.3919 19.6326 21.3146 19.7665 21.1788L23.6751 17.2702L25.8714 19.428C26.011 19.5588 26.1945 19.6327 26.3859 19.6353C26.5755 19.6355 26.7575 19.561 26.8927 19.428L32.3371 13.9835V14.4059C32.3556 14.5855 32.4401 14.7518 32.5741 14.8728C32.7081 14.9937 32.8823 15.0606 33.0628 15.0606C33.2433 15.0606 33.4175 14.9937 33.5515 14.8728C33.6855 14.7518 33.77 14.5855 33.7885 14.4059V12.2404C33.7773 12.0513 33.6967 11.873 33.562 11.7397C33.4273 11.6065 33.2482 11.5277 33.059 11.5186H33.0206Z" fill="black" fill-opacity="0.25"/>
</svg>
