<svg width="36" height="37" viewBox="0 0 36 37" fill="none" xmlns="http://www.w3.org/2000/svg">
<path d="M21.2063 0.933716C21.0226 0.933716 20.8464 1.00669 20.7165 1.13658C20.5866 1.26648 20.5137 1.44265 20.5137 1.62635V15.4937C20.5137 15.6774 20.5866 15.8536 20.7165 15.9835C20.8464 16.1134 21.0226 16.1863 21.2063 16.1863H35.081C35.2647 16.1863 35.4409 16.1134 35.5708 15.9835C35.7007 15.8536 35.7737 15.6774 35.7737 15.4937C35.7717 11.6315 34.2361 7.9281 31.5044 5.19779C28.7727 2.46747 25.0685 0.933715 21.2063 0.933716ZM21.8989 14.8011V2.34108C25.144 2.51976 28.2089 3.89028 30.5057 6.18976C32.8025 8.48923 34.1693 11.5557 34.3442 14.8011H21.8989Z" fill="black" fill-opacity="0.25"/>
<path d="M31.323 17.9916H18.7082V5.36951C18.7082 5.18581 18.6353 5.00964 18.5054 4.87975C18.3755 4.74985 18.1993 4.67688 18.0156 4.67688C15.2467 4.67688 12.5399 5.49796 10.2376 7.0363C7.93536 8.57464 6.14094 10.7611 5.08132 13.3193C4.02169 15.8775 3.74444 18.6924 4.28464 21.4081C4.82483 24.1239 6.1582 26.6184 8.11613 28.5763C10.0741 30.5343 12.5686 31.8676 15.2844 32.4078C18.0001 32.948 20.815 32.6708 23.3732 31.6112C25.9313 30.5515 28.1178 28.7571 29.6562 26.4548C31.1945 24.1526 32.0156 21.4458 32.0156 18.6769C32.0156 18.4932 31.9426 18.317 31.8127 18.1871C31.6828 18.0572 31.5067 17.9842 31.323 17.9842V17.9916ZM17.323 6.08425V17.0116L9.60089 9.28951C11.7338 7.37129 14.4586 6.24028 17.323 6.08425V6.08425ZM18.0156 31.299C15.5802 31.2983 13.197 30.5927 11.1538 29.2673C9.11055 27.9418 7.49471 26.0533 6.50131 23.8296C5.50792 21.606 5.17945 19.1423 5.55557 16.7361C5.93168 14.3299 6.9963 12.0839 8.62089 10.2695L17.5072 19.1558C17.5717 19.2238 17.6494 19.2778 17.7356 19.3146C17.8218 19.3513 17.9146 19.37 18.0082 19.3695H30.6082C30.4295 22.5899 29.0254 25.6199 26.6839 27.838C24.3424 30.0562 21.241 31.2945 18.0156 31.299V31.299Z" fill="black" fill-opacity="0.25"/>
<path d="M35.0808 17.9915C34.8971 17.9915 34.721 18.0645 34.5911 18.1944C34.4612 18.3243 34.3882 18.5005 34.3882 18.6842C34.3933 22.0895 33.3317 25.411 31.3524 28.1821C31.2984 28.2553 31.2596 28.3386 31.2381 28.427C31.2166 28.5155 31.213 28.6073 31.2274 28.6971C31.2418 28.787 31.2739 28.8731 31.322 28.9504C31.37 29.0277 31.433 29.0946 31.5072 29.1473C31.5814 29.2011 31.6657 29.2397 31.755 29.2607C31.8443 29.2816 31.9369 29.2847 32.0274 29.2696C32.1179 29.2545 32.2044 29.2216 32.2821 29.1728C32.3598 29.124 32.427 29.0602 32.4798 28.9852C34.6294 25.9756 35.7813 22.3678 35.7735 18.6694C35.7735 18.4857 35.7005 18.3096 35.5706 18.1797C35.4407 18.0498 35.2645 17.9768 35.0808 17.9768V17.9915Z" fill="black" fill-opacity="0.25"/>
<path d="M30.564 30.2527C30.4996 30.1883 30.4232 30.1372 30.3392 30.1023C30.2551 30.0675 30.165 30.0496 30.074 30.0496C29.9829 30.0496 29.8928 30.0675 29.8087 30.1023C29.7247 30.1372 29.6483 30.1883 29.584 30.2527V30.2527C29.5196 30.317 29.4685 30.3934 29.4336 30.4774C29.3988 30.5615 29.3809 30.6516 29.3809 30.7427C29.3809 30.8337 29.3988 30.9238 29.4336 31.0079C29.4685 31.0919 29.5196 31.1683 29.584 31.2327C29.6477 31.2991 29.7244 31.3517 29.8093 31.3872C29.8943 31.4227 29.9856 31.4403 30.0776 31.439C30.2585 31.4411 30.4331 31.3723 30.564 31.2474V31.2474C30.6841 31.1125 30.7505 30.9381 30.7505 30.7574C30.7505 30.5767 30.6841 30.4023 30.564 30.2674V30.2527Z" fill="black" fill-opacity="0.25"/>
<path d="M28.5084 32.1389C28.4018 31.9895 28.2402 31.8886 28.0593 31.8582C27.8783 31.8278 27.6926 31.8705 27.5431 31.9768C25.682 33.307 23.5625 34.232 21.3216 34.6922C19.0807 35.1523 16.7683 35.1373 14.5336 34.6481C12.2988 34.1589 10.1916 33.2064 8.34786 31.8522C6.50415 30.498 4.96498 28.772 3.82978 26.786C2.69457 24.7999 1.98857 22.5977 1.75736 20.3218C1.52616 18.0459 1.7749 15.7468 2.48751 13.573C3.20012 11.3992 4.36076 9.39902 5.89447 7.70168C7.42818 6.00433 9.30085 4.64755 11.3915 3.71896C11.5596 3.64372 11.6909 3.5048 11.7565 3.33276C11.8222 3.16072 11.8168 2.96966 11.7415 2.80159C11.6663 2.63353 11.5274 2.50224 11.3553 2.4366C11.1833 2.37096 10.9922 2.37636 10.8242 2.45159C8.55039 3.45601 6.51292 4.92679 4.84369 6.7687C3.17447 8.6106 1.91071 10.7826 1.13427 13.1439C0.357817 15.5053 0.0859874 18.0034 0.336381 20.4765C0.586775 22.9496 1.35381 25.3426 2.58781 27.5004C3.82181 29.6582 5.49527 31.5328 7.49981 33.0027C9.50435 34.4727 11.7953 35.5052 14.2242 36.0335C16.6532 36.5618 19.166 36.574 21.6 36.0694C24.034 35.5648 26.3349 34.5546 28.3536 33.1042C28.4278 33.0515 28.4908 32.9845 28.5388 32.9072C28.5868 32.8299 28.619 32.7439 28.6334 32.654C28.6478 32.5641 28.6442 32.4723 28.6227 32.3839C28.6012 32.2954 28.5624 32.2122 28.5084 32.1389Z" fill="black" fill-opacity="0.25"/>
<path d="M14.0737 2.10526C14.0177 1.93333 13.9004 1.78801 13.7441 1.69698C13.5879 1.60594 13.4036 1.57555 13.2264 1.61158V1.61158C13.0514 1.65994 12.9024 1.77505 12.8115 1.93215C12.7205 2.08924 12.6949 2.27576 12.7401 2.45158C12.7853 2.59601 12.874 2.723 12.9939 2.81528C13.1139 2.90757 13.2594 2.96067 13.4106 2.96737H13.5874C13.6765 2.94356 13.7599 2.90221 13.8328 2.84574C13.9056 2.78928 13.9665 2.71883 14.0118 2.63854C14.0571 2.55825 14.0859 2.46972 14.0965 2.37815C14.1072 2.28657 14.0994 2.1938 14.0737 2.10526V2.10526Z" fill="black" fill-opacity="0.25"/>
<path d="M16.4021 1.69263C16.3903 1.60203 16.3607 1.51465 16.315 1.43553C16.2693 1.35641 16.2084 1.28712 16.1358 1.23164C16.0632 1.17617 15.9803 1.1356 15.892 1.11228C15.8036 1.08897 15.7115 1.08336 15.621 1.09579V1.09579C15.4373 1.10752 15.2658 1.19174 15.1442 1.32992C15.0226 1.46811 14.9609 1.64894 14.9726 1.83263C14.9843 2.01633 15.0685 2.18785 15.2067 2.30945C15.3449 2.43105 15.5257 2.49278 15.7094 2.48105H15.82C15.9106 2.46927 15.998 2.43967 16.0771 2.39397C16.1562 2.34826 16.2255 2.28736 16.281 2.21476C16.3364 2.14216 16.377 2.0593 16.4003 1.97095C16.4236 1.88261 16.4292 1.79052 16.4168 1.7L16.4021 1.69263Z" fill="black" fill-opacity="0.25"/>
<path d="M18.016 0.933716C17.8436 0.951466 17.684 1.03248 17.568 1.1611C17.4519 1.28972 17.3877 1.4568 17.3877 1.63003C17.3877 1.80326 17.4519 1.97034 17.568 2.09896C17.684 2.22758 17.8436 2.3086 18.016 2.32635C18.1883 2.3086 18.3479 2.22758 18.464 2.09896C18.58 1.97034 18.6442 1.80326 18.6442 1.63003C18.6442 1.4568 18.58 1.28972 18.464 1.1611C18.3479 1.03248 18.1883 0.951466 18.016 0.933716V0.933716Z" fill="black" fill-opacity="0.25"/>
<path d="M27.1748 22.0442C27.0916 22.0061 27.0018 21.9847 26.9103 21.9815C26.8189 21.9783 26.7277 21.9932 26.6421 22.0254C26.5564 22.0576 26.478 22.1064 26.4114 22.1691C26.3447 22.2318 26.2912 22.307 26.2537 22.3905C25.7062 23.6127 24.8929 24.6972 23.8732 25.5653C22.8534 26.4334 21.6529 27.063 20.359 27.4084C20.1856 27.4646 20.0391 27.583 19.9479 27.7409C19.8567 27.8988 19.8273 28.0849 19.8653 28.2632C19.9047 28.4104 19.9919 28.5403 20.1134 28.6324C20.2348 28.7245 20.3835 28.7735 20.5359 28.7716C20.5946 28.7787 20.654 28.7787 20.7127 28.7716C22.2075 28.3747 23.5946 27.6487 24.7726 26.6466C25.9506 25.6446 26.8897 24.3918 27.5211 22.98C27.5959 22.8129 27.6014 22.6229 27.5365 22.4517C27.4716 22.2805 27.3416 22.1419 27.1748 22.0663V22.0442Z" fill="black" fill-opacity="0.25"/>
<path d="M18.0525 27.7179C17.8688 27.7179 17.6926 27.7909 17.5627 27.9208C17.4328 28.0507 17.3599 28.2268 17.3599 28.4105C17.3599 28.5942 17.4328 28.7704 17.5627 28.9003C17.6926 29.0302 17.8688 29.1032 18.0525 29.1032V29.1032C18.2362 29.1032 18.4124 29.0302 18.5423 28.9003C18.6722 28.7704 18.7451 28.5942 18.7451 28.4105C18.7451 28.2268 18.6722 28.0507 18.5423 27.9208C18.4124 27.7909 18.2362 27.7179 18.0525 27.7179V27.7179Z" fill="black" fill-opacity="0.25"/>
</svg>
