<svg width="38" height="38" viewBox="0 0 38 38" fill="none" xmlns="http://www.w3.org/2000/svg">
<path d="M37.316 15.1344L33.8645 11.6909V7.24095C33.8647 7.04682 33.7884 6.86042 33.6522 6.72205L27.1503 0.220137C27.0085 0.083347 26.8205 0.00478372 26.6236 0H4.72775C4.53175 0 4.34377 0.0778625 4.20518 0.216458C4.06658 0.355054 3.98872 0.54303 3.98872 0.739033V7.61833C3.98872 7.81433 4.06658 8.00231 4.20518 8.1409C4.34377 8.2795 4.53175 8.35736 4.72775 8.35736C4.92376 8.35736 5.11173 8.2795 5.25033 8.1409C5.38892 8.00231 5.46678 7.81433 5.46678 7.61833V1.47807H25.9081V7.24095C25.9105 7.3828 25.9513 7.52135 26.026 7.64191L25.2398 8.42812C25.0155 8.65267 24.8528 8.93123 24.7674 9.23694C24.6821 9.54265 24.6769 9.8652 24.7524 10.1735H20.2868C19.5253 10.1831 18.7988 10.4941 18.2662 11.0383L17.9753 11.3292L13.1952 10.0163C13.2382 9.73182 13.2137 9.44125 13.1235 9.16807C13.0334 8.89489 12.8802 8.64679 12.6763 8.44384L11.2533 7.02867C11.0823 6.85657 10.8789 6.71999 10.6549 6.62678C10.431 6.53358 10.1908 6.4856 9.94815 6.4856C9.70555 6.4856 9.46535 6.53358 9.24136 6.62678C9.01738 6.71999 8.81404 6.85657 8.64305 7.02867L0.53728 15.1344C0.193028 15.4832 0 15.9535 0 16.4435C0 16.9335 0.193028 17.4038 0.53728 17.7525L1.96031 19.1677C2.13135 19.3397 2.33471 19.4762 2.55869 19.5693C2.78267 19.6624 3.02285 19.7102 3.26541 19.7102H3.52486L3.98872 20.174V25.9762C3.98872 26.1722 4.06658 26.3602 4.20518 26.4988C4.34377 26.6374 4.53175 26.7153 4.72775 26.7153C4.92376 26.7153 5.11173 26.6374 5.25033 26.4988C5.38892 26.3602 5.46678 26.1722 5.46678 25.9762V21.6521L9.27988 25.4652C9.20382 25.6959 9.16663 25.9377 9.16981 26.1806C9.1571 26.7897 9.38536 27.3792 9.80496 27.8209C10.2246 28.2626 10.8016 28.5207 11.4105 28.5392C11.4283 29.1279 11.67 29.6876 12.0865 30.104C12.5029 30.5204 13.0625 30.7622 13.6512 30.7799C13.6827 31.3615 13.9327 31.9097 14.351 32.315C14.7694 32.7202 15.3253 32.9526 15.9076 32.9656C15.9359 33.5719 16.1969 34.1439 16.6362 34.5627C17.0754 34.9815 17.6593 35.2148 18.2662 35.2141C18.859 35.1978 19.4225 34.9527 19.8386 34.5301L21.0179 33.3587C21.3754 32.9931 21.6044 32.5213 21.6705 32.0143C22.0072 32.2633 22.4054 32.4158 22.8222 32.4554C23.2391 32.4951 23.6589 32.4203 24.0365 32.2392C24.4141 32.0581 24.7352 31.7775 24.9652 31.4276C25.1952 31.0776 25.3255 30.6716 25.3421 30.2532C25.9373 30.2335 26.5014 29.9825 26.9145 29.5534C27.3327 29.1351 27.5747 28.5724 27.5906 27.981C27.991 27.966 28.3806 27.8469 28.7208 27.6353C29.0611 27.4237 29.3403 27.127 29.5308 26.7745C29.7214 26.422 29.8167 26.0259 29.8073 25.6253C29.7979 25.2247 29.6843 24.8335 29.4775 24.4903L34.3284 19.6394H34.58C34.8225 19.6395 35.0627 19.5916 35.2867 19.4985C35.5107 19.4054 35.714 19.2689 35.8851 19.0969L37.316 17.7604C37.6602 17.4117 37.8532 16.9414 37.8532 16.4513C37.8532 15.9613 37.6602 15.491 37.316 15.1423V15.1344ZM27.3626 2.55517L31.3408 6.53336H27.3626V2.55517ZM32.4179 7.97998V10.2128L30.1929 7.97998H32.4179ZM3.52486 18.122C3.49174 18.1578 3.4516 18.1863 3.40696 18.2057C3.36231 18.2252 3.31412 18.2353 3.26541 18.2353C3.2167 18.2353 3.16851 18.2252 3.12387 18.2057C3.07922 18.1863 3.03908 18.1578 3.00596 18.122L1.58293 16.7069C1.51426 16.6364 1.47582 16.5419 1.47582 16.4435C1.47582 16.3451 1.51426 16.2506 1.58293 16.1801L9.68084 8.09005C9.71455 8.05534 9.75488 8.02775 9.79945 8.0089C9.84401 7.99006 9.89191 7.98035 9.94029 7.98035C9.98868 7.98035 10.0366 7.99006 10.0811 8.0089C10.1257 8.02775 10.166 8.05534 10.1997 8.09005L11.6228 9.50522C11.6914 9.57569 11.7299 9.6702 11.7299 9.7686C11.7299 9.867 11.6914 9.96151 11.6228 10.032L3.52486 18.122ZM12.0866 26.7703C11.969 26.889 11.8186 26.97 11.6547 27.0029C11.4908 27.0358 11.3208 27.0192 11.1665 26.955C11.0121 26.8909 10.8803 26.7823 10.7879 26.6429C10.6956 26.5036 10.6468 26.3399 10.6479 26.1728C10.6479 26.0539 10.6719 25.9362 10.7186 25.8268C10.7798 25.7618 10.8302 25.6875 10.868 25.6067L12.4797 24.0343C12.5584 23.9563 12.6517 23.8947 12.7542 23.8529C12.8567 23.811 12.9665 23.7899 13.0773 23.7906C13.188 23.7894 13.298 23.8104 13.4006 23.8522C13.5032 23.8941 13.5964 23.956 13.6748 24.0343C13.7546 24.112 13.8181 24.2049 13.8615 24.3075C13.9049 24.4101 13.9272 24.5204 13.9272 24.6318C13.9272 24.7432 13.9049 24.8535 13.8615 24.9561C13.8181 25.0588 13.7546 25.1517 13.6748 25.2293L12.0866 26.7703ZM13.1323 29.011C13.0543 28.9323 12.9927 28.839 12.9509 28.7365C12.909 28.634 12.8879 28.5242 12.8886 28.4135C12.888 28.19 12.9756 27.9753 13.1323 27.8159L14.744 26.2042L16.0177 24.9384C16.0957 24.8591 16.1886 24.7959 16.2912 24.7528C16.3938 24.7096 16.5039 24.6872 16.6152 24.6868C16.8393 24.6909 17.0532 24.7809 17.2127 24.9384C17.3683 25.0984 17.4554 25.3128 17.4554 25.5359C17.4554 25.7591 17.3683 25.9735 17.2127 26.1335L14.3352 29.0031C14.257 29.082 14.1639 29.1447 14.0613 29.1874C13.9588 29.2302 13.8488 29.2522 13.7377 29.2522C13.6266 29.2522 13.5165 29.2302 13.414 29.1874C13.3114 29.1447 13.2184 29.082 13.1401 29.0031L13.1323 29.011ZM16.568 31.2517C16.4503 31.3737 16.2986 31.4574 16.1325 31.4917C15.9665 31.526 15.794 31.5093 15.6376 31.4438C15.4812 31.3784 15.3482 31.2672 15.2561 31.1249C15.164 30.9826 15.117 30.8158 15.1214 30.6463C15.1225 30.4231 15.2098 30.209 15.3651 30.0488L17.3935 28.0203C17.5547 27.8664 17.7682 27.7793 17.991 27.7766C18.1565 27.7792 18.3177 27.8302 18.4546 27.9231C18.5916 28.0161 18.6984 28.1471 18.7618 28.3C18.8253 28.4528 18.8428 28.6209 18.812 28.7836C18.7812 28.9462 18.7035 29.0963 18.5885 29.2154L16.568 31.2517ZM19.9801 32.3209L18.8087 33.4845C18.7327 33.5665 18.6401 33.6313 18.5371 33.6747C18.434 33.7181 18.3229 33.739 18.2112 33.7361C18.0441 33.7349 17.881 33.6845 17.7424 33.5911C17.6039 33.4978 17.4959 33.3656 17.4321 33.2111C17.3683 33.0567 17.3515 32.8868 17.3838 32.7229C17.4161 32.5589 17.4961 32.4082 17.6137 32.2894L18.793 31.1259C18.8688 31.0463 18.9604 30.9835 19.062 30.9415C19.1635 30.8995 19.2728 30.8793 19.3826 30.8821C19.4934 30.881 19.6033 30.902 19.7059 30.9438C19.8085 30.9857 19.9017 31.0476 19.9801 31.1259C20.0591 31.2041 20.1217 31.2971 20.1644 31.3997C20.2072 31.5023 20.2292 31.6123 20.2292 31.7234C20.2292 31.8345 20.2072 31.9445 20.1644 32.0471C20.1217 32.1496 20.0591 32.2427 19.9801 32.3209ZM28.0938 26.3143C28.02 26.3966 27.9297 26.4625 27.8288 26.5076C27.7279 26.5527 27.6186 26.576 27.508 26.576C27.3975 26.576 27.2882 26.5527 27.1873 26.5076C27.0863 26.4625 26.9961 26.3966 26.9223 26.3143L24.7052 24.0972L23.4473 22.8471C23.3787 22.7784 23.2972 22.7239 23.2074 22.6867C23.1177 22.6495 23.0216 22.6304 22.9245 22.6304C22.8274 22.6304 22.7312 22.6495 22.6415 22.6867C22.5518 22.7239 22.4703 22.7784 22.4016 22.8471C22.2734 22.9911 22.2026 23.1772 22.2026 23.3699C22.2026 23.5627 22.2734 23.7488 22.4016 23.8928L25.8767 27.3678C25.9607 27.4455 26.0268 27.5407 26.0702 27.6466C26.1137 27.7525 26.1335 27.8667 26.1283 27.981C26.1284 28.0905 26.1069 28.1989 26.0651 28.3001C26.0232 28.4013 25.9619 28.4932 25.8845 28.5707C25.7266 28.7211 25.5169 28.8051 25.2988 28.8051C25.0807 28.8051 24.871 28.7211 24.7131 28.5707L21.2381 25.0957C21.1694 25.027 21.0879 24.9725 20.9982 24.9353C20.9085 24.8981 20.8123 24.879 20.7152 24.879C20.6181 24.879 20.522 24.8981 20.4323 24.9353C20.3425 24.9725 20.261 25.027 20.1924 25.0957C20.0642 25.2396 19.9934 25.4257 19.9934 25.6185C19.9934 25.8113 20.0642 25.9973 20.1924 26.1413L21.4503 27.3992L23.6596 29.5534C23.8002 29.6583 23.9018 29.8073 23.948 29.9766C23.9942 30.1458 23.9825 30.3257 23.9147 30.4875C23.8469 30.6494 23.7269 30.7839 23.5738 30.8696C23.4207 30.9554 23.2433 30.9875 23.0699 30.9608C22.9619 30.9635 22.8546 30.944 22.7545 30.9034C22.6544 30.8628 22.5637 30.8021 22.4881 30.7249L20.3182 28.555C20.3125 27.9499 20.0697 27.3713 19.6421 26.9432C19.3908 26.6957 19.0872 26.5076 18.7537 26.3929C18.893 26.0396 18.945 25.6579 18.9052 25.2802C18.8654 24.9025 18.735 24.54 18.525 24.2235C18.315 23.9071 18.0318 23.646 17.6993 23.4624C17.3668 23.2789 16.9949 23.1784 16.6152 23.1695C16.1227 23.1672 15.6428 23.3244 15.2472 23.6176C15.1306 23.3401 14.9595 23.0887 14.744 22.8786C14.3038 22.4511 13.7144 22.212 13.1008 22.212C12.4873 22.212 11.8978 22.4511 11.4577 22.8786L10.1447 24.1915L4.82996 18.8768L12.409 11.3056L16.7488 12.5007L12.0316 17.155C11.7976 17.3807 11.6105 17.6504 11.4811 17.9487C11.3516 18.2469 11.2823 18.5678 11.2772 18.8929C11.2721 19.2179 11.3312 19.5408 11.4513 19.843C11.5713 20.1452 11.7498 20.4206 11.9766 20.6536C12.2021 20.8985 12.4754 21.0947 12.7796 21.2299C13.0839 21.3651 13.4126 21.4365 13.7455 21.4398C14.1708 21.4435 14.5891 21.3321 14.9563 21.1175L20.3261 18.0906H20.9786V18.1378L27.8972 25.0485L28.023 25.1743C28.1771 25.3303 28.2636 25.5407 28.2636 25.76C28.2636 25.9793 28.1771 26.1897 28.023 26.3457L28.0938 26.3143ZM28.4869 23.4525L23.0935 18.0591H23.2979C23.4818 18.0402 23.6521 17.9537 23.7759 17.8165C23.8997 17.6793 23.9683 17.501 23.9683 17.3162C23.9683 17.1313 23.8997 16.9531 23.7759 16.8158C23.6521 16.6786 23.4818 16.5921 23.2979 16.5732H20.1531C20.0258 16.5755 19.9012 16.6107 19.7914 16.6754L14.288 19.8202C14.0795 19.9766 13.8174 20.0438 13.5594 20.0069C13.3013 19.97 13.0685 19.8322 12.9121 19.6237C12.7558 19.4152 12.6886 19.1531 12.7255 18.895C12.7623 18.637 12.9002 18.4042 13.1087 18.2478L19.3197 12.0997C19.584 11.8395 19.9395 11.6929 20.3103 11.6909H25.8138L33.0469 18.924L28.4869 23.4525ZM36.2703 16.7069L34.8473 18.122C34.8142 18.1578 34.774 18.1863 34.7294 18.2057C34.6847 18.2252 34.6365 18.2353 34.5878 18.2353C34.5391 18.2353 34.4909 18.2252 34.4463 18.2057C34.4016 18.1863 34.3615 18.1578 34.3284 18.122L26.2305 10.032C26.1618 9.96151 26.1234 9.867 26.1234 9.7686C26.1234 9.6702 26.1618 9.57569 26.2305 9.50522L27.6535 8.09005C27.7226 8.02187 27.8158 7.98365 27.9129 7.98365C28.01 7.98365 28.1032 8.02187 28.1724 8.09005L36.2703 16.188C36.339 16.2584 36.3774 16.3529 36.3774 16.4513C36.3774 16.5497 36.339 16.6442 36.2703 16.7147V16.7069Z" fill="black" fill-opacity="0.25"/>
<path d="M34.7765 15.5748C34.6335 15.4409 34.4457 15.3652 34.2498 15.3625C34.0566 15.3671 33.8719 15.4427 33.7309 15.5748C33.5941 15.7166 33.5155 15.9046 33.5107 16.1016C33.5104 16.1985 33.5297 16.2944 33.5676 16.3836C33.6054 16.4728 33.661 16.5534 33.7309 16.6205C33.7982 16.69 33.8789 16.7454 33.968 16.7832C34.0571 16.821 34.153 16.8405 34.2498 16.8406C34.4467 16.8358 34.6347 16.7573 34.7765 16.6205C34.8465 16.5534 34.902 16.4728 34.9399 16.3836C34.9777 16.2944 34.997 16.1985 34.9967 16.1016C34.9919 15.9046 34.9133 15.7166 34.7765 15.5748Z" fill="black" fill-opacity="0.25"/>
<path d="M4.11443 15.5748C3.97142 15.4409 3.78357 15.3652 3.58767 15.3625C3.3945 15.3671 3.20978 15.4427 3.06878 15.5748C2.93199 15.7166 2.85342 15.9046 2.84864 16.1016C2.84828 16.1985 2.86761 16.2944 2.90545 16.3836C2.94329 16.4728 2.99886 16.5534 3.06878 16.6205C3.13613 16.69 3.21676 16.7454 3.3059 16.7832C3.39503 16.821 3.49085 16.8405 3.58767 16.8406C3.78367 16.8406 3.97165 16.7628 4.11025 16.6242C4.24884 16.4856 4.3267 16.2976 4.3267 16.1016C4.32405 15.9057 4.24835 15.7178 4.11443 15.5748Z" fill="black" fill-opacity="0.25"/>
<path d="M33.1255 23.7592C32.9295 23.7592 32.7416 23.837 32.603 23.9756C32.4644 24.1142 32.3865 24.3022 32.3865 24.4982V36.3935H30.9084V32.203C30.9084 32.007 30.8306 31.819 30.692 31.6804C30.5534 31.5418 30.3654 31.464 30.1694 31.464C29.9734 31.464 29.7854 31.5418 29.6468 31.6804C29.5082 31.819 29.4304 32.007 29.4304 32.203V36.3935H5.46683V32.3052C5.46683 32.1092 5.38897 31.9212 5.25038 31.7826C5.11178 31.644 4.92381 31.5662 4.7278 31.5662C4.5318 31.5662 4.34382 31.644 4.20523 31.7826C4.06663 31.9212 3.98877 32.1092 3.98877 32.3052V37.1325C3.98877 37.3285 4.06663 37.5165 4.20523 37.6551C4.34382 37.7937 4.5318 37.8715 4.7278 37.8715H33.1255C33.3215 37.8715 33.5095 37.7937 33.6481 37.6551C33.7867 37.5165 33.8646 37.3285 33.8646 37.1325V24.4982C33.8646 24.3022 33.7867 24.1142 33.6481 23.9756C33.5095 23.837 33.3215 23.7592 33.1255 23.7592Z" fill="black" fill-opacity="0.25"/>
<path d="M5.24687 28.7674C5.17952 28.6978 5.09888 28.6425 5.00975 28.6047C4.92062 28.5669 4.8248 28.5473 4.72798 28.5472C4.53197 28.5472 4.344 28.6251 4.2054 28.7637C4.06681 28.9023 3.98894 29.0903 3.98894 29.2863C3.9868 29.3839 4.00445 29.481 4.04083 29.5716C4.07721 29.6622 4.13156 29.7446 4.20062 29.8136C4.26968 29.8827 4.35201 29.937 4.44264 29.9734C4.53328 30.0098 4.63034 30.0275 4.72798 30.0253C4.92115 30.0207 5.10587 29.9452 5.24687 29.813C5.38366 29.6712 5.46223 29.4832 5.46701 29.2863C5.46736 29.1894 5.44804 29.0934 5.4102 29.0042C5.37235 28.915 5.31679 28.8345 5.24687 28.7674Z" fill="black" fill-opacity="0.25"/>
<path d="M18.9109 3.16846C18.7149 3.16846 18.5269 3.24632 18.3883 3.38492C18.2497 3.52351 18.1719 3.71149 18.1719 3.90749V5.78652C18.1719 5.98252 18.2497 6.1705 18.3883 6.3091C18.5269 6.44769 18.7149 6.52555 18.9109 6.52555C19.1069 6.52555 19.2949 6.44769 19.4335 6.3091C19.5721 6.1705 19.6499 5.98252 19.6499 5.78652V3.90749C19.6499 3.71149 19.5721 3.52351 19.4335 3.38492C19.2949 3.24632 19.1069 3.16846 18.9109 3.16846Z" fill="black" fill-opacity="0.25"/>
<path d="M16.3319 6.14037L15.2548 5.05541C15.1161 4.9157 14.9276 4.8368 14.7308 4.83606C14.534 4.83533 14.3449 4.91281 14.2052 5.05148C14.0655 5.19014 13.9866 5.37862 13.9858 5.57545C13.9851 5.77229 14.0626 5.96135 14.2013 6.10106L15.2862 7.18602C15.4292 7.31994 15.6171 7.39564 15.813 7.3983C15.9581 7.39686 16.0995 7.35275 16.2197 7.27145C16.3399 7.19015 16.4335 7.07526 16.4889 6.94112C16.5442 6.80697 16.5588 6.65951 16.5309 6.51711C16.503 6.37471 16.4338 6.24369 16.3319 6.14037Z" fill="black" fill-opacity="0.25"/>
<path d="M23.6439 5.01603C23.5753 4.94732 23.4938 4.89282 23.4041 4.85564C23.3144 4.81846 23.2182 4.79932 23.1211 4.79932C23.024 4.79932 22.9278 4.81846 22.8381 4.85564C22.7484 4.89282 22.6669 4.94732 22.5983 5.01603L21.4818 6.13244C21.4131 6.20107 21.3586 6.28257 21.3215 6.37228C21.2843 6.46199 21.2651 6.55815 21.2651 6.65526C21.2651 6.75237 21.2843 6.84853 21.3215 6.93824C21.3586 7.02795 21.4131 7.10946 21.4818 7.17809C21.5499 7.24774 21.6313 7.30309 21.7211 7.34087C21.8108 7.37866 21.9073 7.39812 22.0047 7.39812C22.1021 7.39812 22.1985 7.37866 22.2883 7.34087C22.3781 7.30309 22.4594 7.24774 22.5275 7.17809L23.6439 6.06168C23.7126 5.99304 23.7671 5.91154 23.8043 5.82183C23.8415 5.73212 23.8606 5.63596 23.8606 5.53885C23.8606 5.44174 23.8415 5.34558 23.8043 5.25587C23.7671 5.16616 23.7126 5.08466 23.6439 5.01603Z" fill="black" fill-opacity="0.25"/>
<path d="M30.6883 28.7673C30.6212 28.6973 30.5406 28.6418 30.4514 28.6039C30.3622 28.5661 30.2663 28.5468 30.1694 28.5471C29.9734 28.5471 29.7854 28.625 29.6468 28.7636C29.5082 28.9022 29.4304 29.0902 29.4304 29.2862C29.4282 29.3838 29.4459 29.4809 29.4822 29.5715C29.5186 29.6621 29.573 29.7445 29.642 29.8135C29.7111 29.8826 29.7934 29.9369 29.884 29.9733C29.9747 30.0097 30.0717 30.0273 30.1694 30.0252C30.3654 30.0252 30.5534 29.9473 30.692 29.8087C30.8306 29.6701 30.9084 29.4822 30.9084 29.2862C30.9088 29.1893 30.8894 29.0933 30.8516 29.0041C30.8138 28.9149 30.7582 28.8343 30.6883 28.7673Z" fill="black" fill-opacity="0.25"/>
</svg>
