<svg width="40" height="40" viewBox="0 0 40 40" fill="none" xmlns="http://www.w3.org/2000/svg">
<path d="M39.2228 38.4402H37.3384V33.3077C37.3384 33.1017 37.2566 32.9041 37.1109 32.7584C36.9652 32.6127 36.7676 32.5308 36.5615 32.5308C36.3555 32.5308 36.1579 32.6127 36.0122 32.7584C35.8665 32.9041 35.7846 33.1017 35.7846 33.3077V38.4402H28.3463V20.7121H35.7846V26.076C35.7846 26.282 35.8665 26.4796 36.0122 26.6253C36.1579 26.771 36.3555 26.8529 36.5615 26.8529C36.7676 26.8529 36.9652 26.771 37.1109 26.6253C37.2566 26.4796 37.3384 26.282 37.3384 26.076V19.9352C37.3384 19.7292 37.2566 19.5315 37.1109 19.3858C36.9652 19.2402 36.7676 19.1583 36.5615 19.1583H27.5446C27.3385 19.1583 27.1409 19.2402 26.9952 19.3858C26.8495 19.5315 26.7677 19.7292 26.7677 19.9352V38.4402H25.3792V24.9106C25.3792 24.7046 25.2973 24.507 25.1516 24.3613C25.0059 24.2156 24.8083 24.1337 24.6023 24.1337H20.8583V20.5799C20.96 20.5458 21.0511 20.486 21.1228 20.4063L22.7758 18.7533H23.346C25.0875 18.8251 26.7914 18.2344 28.1149 17.1004C30.024 15.2242 29.7678 11.9844 29.7265 11.472C29.7194 11.2816 29.6396 11.1011 29.5033 10.9678C29.3691 10.8366 29.1942 10.755 29.0074 10.7364C28.5777 10.7364 25.4122 10.4885 23.4783 12.3894C21.8832 13.9432 21.7427 16.4226 21.7675 17.4971L20.8831 18.3814V12.472C20.8918 12.4034 20.8918 12.334 20.8831 12.2654C22.4149 12.074 23.8161 11.3059 24.8013 10.1175C25.7865 8.92906 26.2816 7.40976 26.1857 5.86906C26.0898 4.32835 25.4102 2.88215 24.2853 1.82504C23.1603 0.767936 21.6747 0.179443 20.131 0.179443C18.5873 0.179443 17.1017 0.767936 15.9768 1.82504C14.8518 2.88215 14.1722 4.32835 14.0763 5.86906C13.9805 7.40976 14.4755 8.92906 15.4607 10.1175C16.4459 11.3059 17.8471 12.074 19.3789 12.2654C19.3703 12.334 19.3703 12.4034 19.3789 12.472V15.5466C19.172 15.2537 18.9427 14.9774 18.6929 14.7201C16.1474 12.2406 11.8662 12.5216 11.4281 12.563C11.2273 12.5706 11.0374 12.6567 10.8992 12.8026C10.7759 12.933 10.7027 13.1028 10.6926 13.282C10.6264 13.9101 10.2711 18.2409 12.7918 20.7204C14.6514 22.5552 17.4697 22.8362 19.0483 22.8362H19.3789V24.1172H15.5771C15.371 24.1172 15.1734 24.1991 15.0277 24.3448C14.882 24.4904 14.8002 24.6881 14.8002 24.8941V38.4402H13.3952V29.8861C13.3952 29.68 13.3133 29.4824 13.1676 29.3367C13.0219 29.191 12.8243 29.1092 12.6183 29.1092H3.59307C3.38702 29.1092 3.18941 29.191 3.04372 29.3367C2.89802 29.4824 2.81617 29.68 2.81617 29.8861V38.4402H0.956583C0.750538 38.4402 0.552931 38.522 0.407235 38.6677C0.261539 38.8134 0.179688 39.011 0.179688 39.2171C0.179688 39.4231 0.261539 39.6207 0.407235 39.7664C0.552931 39.9121 0.750538 39.994 0.956583 39.994H39.2228C39.4288 39.994 39.6264 39.9121 39.7721 39.7664C39.9178 39.6207 39.9997 39.4231 39.9997 39.2171C39.9997 39.011 39.9178 38.8134 39.7721 38.6677C39.6264 38.522 39.4288 38.4402 39.2228 38.4402ZM24.5362 13.5878C25.5667 12.7524 26.8632 12.3153 28.1892 12.3563C28.1892 13.3068 28.0487 15.0507 27.0074 16.0755C26.2648 16.7276 25.3312 17.1219 24.3461 17.1995L25.2635 16.2821C25.3357 16.21 25.393 16.1243 25.4321 16.03C25.4712 15.9357 25.4913 15.8346 25.4913 15.7325C25.4913 15.6304 25.4712 15.5294 25.4321 15.435C25.393 15.3407 25.3357 15.2551 25.2635 15.1829C25.1121 15.0481 24.9165 14.9737 24.7139 14.9737C24.5112 14.9737 24.3156 15.0481 24.1643 15.1829L23.4287 15.9185C23.5536 15.0523 23.94 14.245 24.5362 13.6043V13.5878ZM17.5193 18.3979C17.3736 18.2522 17.1759 18.1703 16.9697 18.1703C16.7636 18.1703 16.5659 18.2522 16.4201 18.3979C16.2743 18.5437 16.1924 18.7414 16.1924 18.9475C16.1924 19.1537 16.2743 19.3514 16.4201 19.4972L18.1888 21.2741C16.5794 21.2441 15.0295 20.6603 13.8001 19.6211C12.2133 18.0591 12.0893 15.3565 12.1472 14.1085C13.3621 14.1085 15.9655 14.2986 17.5524 15.8606C18.6019 17.0403 19.2095 18.5476 19.2715 20.1253L17.5193 18.3979ZM11.8414 38.4402H4.40302V30.663H11.8414V38.4402ZM15.5688 6.24862C15.5688 5.35611 15.8335 4.48365 16.3293 3.74155C16.8252 2.99946 17.53 2.42107 18.3545 2.07952C19.1791 1.73797 20.0864 1.64861 20.9618 1.82273C21.8371 1.99685 22.6412 2.42663 23.2723 3.05773C23.9034 3.68883 24.3332 4.4929 24.5073 5.36826C24.6814 6.24362 24.5921 7.15095 24.2505 7.97552C23.909 8.80009 23.3306 9.50486 22.5885 10.0007C21.8464 10.4966 20.9739 10.7612 20.0814 10.7612C18.8853 10.759 17.7387 10.2829 16.8929 9.4371C16.0471 8.5913 15.571 7.44477 15.5688 6.24862ZM23.8337 38.4815H19.4616V33.7292C19.4417 33.5359 19.3508 33.3569 19.2065 33.2267C19.0622 33.0966 18.8748 33.0245 18.6805 33.0245C18.4862 33.0245 18.2988 33.0966 18.1546 33.2267C18.0103 33.3569 17.9194 33.5359 17.8995 33.7292V38.4402H16.3622V25.6875H23.8006L23.8337 38.4815Z" fill="black" fill-opacity="0.25"/>
<path d="M37.1153 29.1836C36.9662 29.0398 36.7686 28.9572 36.5616 28.9521C36.4598 28.9522 36.3591 28.9728 36.2654 29.0125C36.1717 29.0523 36.0869 29.1104 36.0161 29.1836C35.9426 29.2541 35.8842 29.3388 35.8444 29.4326C35.8046 29.5263 35.7843 29.6272 35.7847 29.729C35.7897 29.9361 35.8723 30.1337 36.0161 30.2828C36.1643 30.4217 36.3585 30.5011 36.5616 30.5059C36.6642 30.5082 36.7662 30.4896 36.8615 30.4514C36.9568 30.4132 37.0433 30.356 37.1159 30.2834C37.1885 30.2108 37.2457 30.1243 37.2839 30.029C37.3222 29.9337 37.3407 29.8317 37.3385 29.729C37.3386 29.525 37.2585 29.329 37.1153 29.1836Z" fill="black" fill-opacity="0.25"/>
<path d="M20.0816 5.44701C19.9843 5.45967 19.8854 5.45272 19.7908 5.42658C19.6961 5.40043 19.6077 5.35562 19.5307 5.29477C19.4537 5.23392 19.3896 5.15828 19.3423 5.07229C19.295 4.9863 19.2653 4.89171 19.2551 4.79408C19.3052 4.62241 19.4096 4.47161 19.5526 4.36431C19.6957 4.25702 19.8697 4.19901 20.0485 4.19901C20.2274 4.19901 20.4014 4.25702 20.5444 4.36431C20.6875 4.47161 20.7919 4.62241 20.842 4.79408C20.842 5.00013 20.9238 5.19773 21.0695 5.34343C21.2152 5.48913 21.4128 5.57098 21.6189 5.57098C21.8249 5.57098 22.0225 5.48913 22.1682 5.34343C22.3139 5.19773 22.3957 5.00013 22.3957 4.79408C22.3843 4.32641 22.2267 3.87407 21.9451 3.50054C21.6634 3.127 21.2719 2.85103 20.8254 2.71134C20.8254 2.5053 20.7436 2.30769 20.5979 2.162C20.4522 2.0163 20.2546 1.93445 20.0485 1.93445C19.8425 1.93445 19.6449 2.0163 19.4992 2.162C19.3535 2.30769 19.2716 2.5053 19.2716 2.71134C18.8287 2.85499 18.4421 3.13409 18.1662 3.50926C17.8904 3.88443 17.7394 4.33673 17.7344 4.80235C17.7538 5.40596 18.0118 5.97724 18.4518 6.39091C18.8918 6.80458 19.4779 7.02688 20.0816 7.00906C20.1785 6.99519 20.2771 7.00101 20.3717 7.02618C20.4663 7.05135 20.5548 7.09535 20.632 7.15554C20.7092 7.21573 20.7734 7.29088 20.8208 7.37648C20.8683 7.46208 20.8979 7.55638 20.9081 7.65372C20.858 7.82539 20.7536 7.97619 20.6105 8.08349C20.4675 8.19078 20.2935 8.24879 20.1146 8.24879C19.9358 8.24879 19.7618 8.19078 19.6188 8.08349C19.4757 7.97619 19.3713 7.82539 19.3212 7.65372C19.3212 7.44767 19.2394 7.25007 19.0937 7.10437C18.948 6.95867 18.7504 6.87682 18.5443 6.87682C18.3383 6.87682 18.1407 6.95867 17.995 7.10437C17.8493 7.25007 17.7674 7.44767 17.7674 7.65372C17.7664 8.12279 17.9149 8.57998 18.1913 8.95895C18.4677 9.33792 18.8577 9.61895 19.3047 9.76125C19.3047 9.9673 19.3865 10.1649 19.5322 10.3106C19.6779 10.4563 19.8755 10.5381 20.0816 10.5381C20.2876 10.5381 20.4852 10.4563 20.6309 10.3106C20.7766 10.1649 20.8585 9.9673 20.8585 9.76125C21.3063 9.62378 21.6992 9.34838 21.9812 8.97437C22.2632 8.60036 22.4198 8.14683 22.4288 7.67851C22.4192 7.37999 22.3508 7.08629 22.2277 6.8142C22.1045 6.54211 21.9288 6.29697 21.7109 6.0928C21.4929 5.88862 21.2368 5.72941 20.9572 5.62428C20.6776 5.51914 20.3801 5.47013 20.0816 5.48006V5.44701Z" fill="black" fill-opacity="0.25"/>
<path d="M19.2301 30.0844C19.0818 29.9455 18.8876 29.866 18.6846 29.8612C18.4786 29.864 18.2812 29.9436 18.1308 30.0844C17.987 30.2334 17.9044 30.431 17.8994 30.6381C17.9065 30.8423 17.9889 31.0366 18.1308 31.1836C18.2799 31.3274 18.4775 31.41 18.6846 31.415C18.8868 31.4032 19.0776 31.3175 19.2208 31.1743C19.364 31.0311 19.4497 30.8403 19.4615 30.6381C19.4564 30.431 19.3739 30.2334 19.2301 30.0844Z" fill="black" fill-opacity="0.25"/>
</svg>
